/* XPM */
static char * logo_xpm[] = {
"20 20 324 2",
"  	c None",
". 	c #6A6A6A",
"+ 	c #525252",
"@ 	c #565656",
"# 	c #555655",
"$ 	c #555656",
"% 	c #565655",
"& 	c #565654",
"* 	c #555657",
"= 	c #535353",
"- 	c #5E5E5E",
"; 	c #6A6B6A",
"> 	c #D7E3D7",
", 	c #DFEBDF",
"' 	c #DEEBDF",
") 	c #E5ECDE",
"! 	c #EFECD8",
"~ 	c #F1ECCE",
"{ 	c #EFE9C5",
"] 	c #EFE7BB",
"^ 	c #EDE4AE",
"/ 	c #EBE2A9",
"( 	c #E3E6C3",
"_ 	c #DEEBE1",
": 	c #DFEBDE",
"< 	c #DEEADE",
"[ 	c #9CA19C",
"} 	c #585858",
"| 	c #E6F3E6",
"1 	c #E4F1E4",
"2 	c #EAF3E6",
"3 	c #F6F5E4",
"4 	c #F9F5DD",
"5 	c #F8F3D7",
"6 	c #F7F1D0",
"7 	c #F6EEC5",
"8 	c #F5EBB9",
"9 	c #F3E8AA",
"0 	c #F2E599",
"a 	c #F0E182",
"b 	c #E9DE87",
"c 	c #E4E9C3",
"d 	c #E5F2E7",
"e 	c #E5F2E5",
"f 	c #424442",
"g 	c #FAF7E4",
"h 	c #FAF6E4",
"i 	c #FBF8EA",
"j 	c #F8F2D3",
"k 	c #F7F0CA",
"l 	c #F6EDBF",
"m 	c #F4EAB0",
"n 	c #F4E8A0",
"o 	c #F1E38C",
"p 	c #EFDF77",
"q 	c #E8D86A",
"r 	c #E0D05E",
"s 	c #DFE2B3",
"t 	c #E5F2E6",
"u 	c #505350",
"v 	c #FAF5E2",
"w 	c #FFFFFF",
"x 	c #FCF9EA",
"y 	c #F7F1CE",
"z 	c #F7EFC4",
"A 	c #F6ECB7",
"B 	c #F4E9A6",
"C 	c #F2E593",
"D 	c #F0E17E",
"E 	c #ECDD69",
"F 	c #E5D55E",
"G 	c #DDCC55",
"H 	c #D5C449",
"I 	c #DCDC9C",
"J 	c #F6F5E3",
"K 	c #F9F5DF",
"L 	c #FAF6E2",
"M 	c #FCFAED",
"N 	c #FBF4D2",
"O 	c #F9F1C9",
"P 	c #F2ECBA",
"Q 	c #F0E9AC",
"R 	c #EFE69A",
"S 	c #EDE286",
"T 	c #EADD6E",
"U 	c #E3D55D",
"V 	c #DBCD51",
"W 	c #D6C748",
"X 	c #D1BF32",
"Y 	c #CCB21F",
"Z 	c #E3EFE0",
"` 	c #505351",
" .	c #E7EDDF",
"..	c #FAF5DD",
"+.	c #F9F5DB",
"@.	c #F8F4D6",
"#.	c #F6F1CF",
"$.	c #A5CAA4",
"%.	c #66AA81",
"&.	c #529F74",
"*.	c #4D9C6F",
"=.	c #4E9D6E",
"-.	c #469867",
";.	c #2F8C55",
">.	c #127B3D",
",.	c #097033",
"'.	c #5A8D32",
").	c #CDB715",
"!.	c #C7A713",
"~.	c #D2C670",
"{.	c #515455",
"].	c #F1EDD5",
"^.	c #F9F3D6",
"/.	c #F9F3D3",
"(.	c #D8E2C1",
"_.	c #6EAE8A",
":.	c #3B9468",
"<.	c #429662",
"[.	c #4E9A60",
"}.	c #4E9A5C",
"|.	c #549C5C",
"1.	c #509952",
"2.	c #3A8C3F",
"3.	c #328335",
"4.	c #307A31",
"5.	c #698D20",
"6.	c #C9A911",
"7.	c #C2A513",
"8.	c #C5AE31",
"9.	c #4F5049",
"0.	c #F1EBCA",
"a.	c #F7F1CC",
"b.	c #F4EFC6",
"c.	c #7EB693",
"d.	c #479A6F",
"e.	c #8FBB82",
"f.	c #FFEFAA",
"g.	c #F8E997",
"h.	c #F7E683",
"i.	c #F5E269",
"j.	c #F3DD4D",
"k.	c #ECD540",
"l.	c #E2CD38",
"m.	c #D8C221",
"n.	c #CEB011",
"o.	c #C5A60F",
"p.	c #BEA111",
"q.	c #BEA422",
"r.	c #4B4835",
"s.	c #F0E9BF",
"t.	c #F7EEBF",
"u.	c #EAE8B6",
"v.	c #56A27A",
"w.	c #499965",
"x.	c #F2E8A0",
"y.	c #F3E792",
"z.	c #ECE17F",
"A.	c #73A959",
"B.	c #7BAD5A",
"C.	c #79AA51",
"D.	c #639C40",
"E.	c #538F2F",
"F.	c #4E8223",
"G.	c #79881A",
"H.	c #BFA310",
"I.	c #BA9E0F",
"J.	c #B8A01B",
"K.	c #494530",
"L.	c #565553",
"M.	c #EEE6B1",
"N.	c #F6EBB0",
"O.	c #E6E3A4",
"P.	c #338F5E",
"Q.	c #328B4E",
"R.	c #EFE489",
"S.	c #F2E37A",
"T.	c #E9DC64",
"U.	c #23813B",
"V.	c #268548",
"W.	c #218244",
"X.	c #0F7633",
"Y.	c #0C6C2E",
"Z.	c #005A2C",
"`.	c #46701E",
" +	c #BC9F0F",
".+	c #B59B0F",
"++	c #B29B17",
"@+	c #48452F",
"#+	c #565653",
"$+	c #EEE3A0",
"%+	c #F4E79C",
"&+	c #EDE493",
"*+	c #27864A",
"=+	c #006E34",
"-+	c #C7CC65",
";+	c #F4E05E",
">+	c #EFDB49",
",+	c #E2D237",
"'+	c #DBCB2B",
")+	c #D2BF16",
"!+	c #CBAE12",
"~+	c #B3A314",
"{+	c #00572A",
"]+	c #436C1D",
"^+	c #B69B0F",
"/+	c #B0970E",
"(+	c #AF9919",
"_+	c #484531",
":+	c #535454",
"<+	c #EADE8E",
"[+	c #F2E487",
"}+	c #F1E27D",
"|+	c #A4BD5C",
"1+	c #006A32",
"2+	c #006730",
"3+	c #63993A",
"4+	c #9AB234",
"5+	c #A1B227",
"6+	c #9BA91C",
"7+	c #969E1C",
"8+	c #919919",
"9+	c #818F1A",
"0+	c #005529",
"a+	c #3E681D",
"b+	c #B1980E",
"c+	c #AC950D",
"d+	c #AE9B23",
"e+	c #4C4B3F",
"f+	c #E7E2AA",
"g+	c #F0DF6A",
"h+	c #EFDD61",
"i+	c #F1DD52",
"j+	c #D2CC42",
"k+	c #27772D",
"l+	c #07662E",
"m+	c #02652E",
"n+	c #01652F",
"o+	c #016630",
"p+	c #01632D",
"q+	c #015C2A",
"r+	c #015527",
"s+	c #024F23",
"t+	c #3C631B",
"u+	c #AC950E",
"v+	c #A7920D",
"w+	c #B5AA48",
"x+	c #515454",
"y+	c #EEDA4D",
"z+	c #EDD82F",
"A+	c #EBD420",
"B+	c #E9CC17",
"C+	c #E6C212",
"D+	c #CBB214",
"E+	c #BAA815",
"F+	c #B4A415",
"G+	c #ADA114",
"H+	c #A99C14",
"I+	c #A49813",
"J+	c #9E9213",
"K+	c #988D11",
"L+	c #9B8D10",
"M+	c #A7910D",
"N+	c #A59012",
"O+	c #DCE4C9",
"P+	c #515351",
"Q+	c #E6DD90",
"R+	c #E4BC13",
"S+	c #E2B911",
"T+	c #DFB811",
"U+	c #DBB611",
"V+	c #D7B412",
"W+	c #D2B011",
"X+	c #CCAD11",
"Y+	c #C5A810",
"Z+	c #BFA30F",
"`+	c #B99F10",
" @	c #B39A0E",
".@	c #AD960E",
"+@	c #A3900F",
"@@	c #C1BD75",
"#@	c #E5F2E8",
"$@	c #E3D783",
"%@	c #DBB511",
"&@	c #D8B410",
"*@	c #D5B211",
"=@	c #D0AF11",
"-@	c #CBAC11",
";@	c #C6A810",
">@	c #C0A40F",
",@	c #BAA00F",
"'@	c #B49B0F",
")@	c #AE970E",
"!@	c #A9930D",
"~@	c #A48F0E",
"{@	c #B5AA4C",
"]@	c #DFD688",
"^@	c #D4B31B",
"/@	c #CFAE10",
"(@	c #CAAB10",
"_@	c #BBA10F",
":@	c #B59C0F",
"<@	c #B0990E",
"[@	c #A9940C",
"}@	c #A5900E",
"|@	c #C0BB6F",
"1@	c #494B49",
"2@	c #E4F1E5",
"3@	c #E3EDD9",
"4@	c #D4C35B",
"5@	c #C9AF23",
"6@	c #C2A717",
"7@	c #BDA315",
"8@	c #B8A015",
"9@	c #B39C16",
"0@	c #B09C1D",
"a@	c #B7AA41",
"b@	c #DCE5C8",
"c@	c #C8D1C8",
"d@	c #464546",
"e@	c #4E4E43",
"f@	c #4B472F",
"g@	c #49452D",
"h@	c #48452E",
"i@	c #4B4B3E",
"  . + @ # # # $ % & & & * $ # # # = -   ",
". ; > , , ' ) ! ~ { ] ^ / ( _ : , < [ } ",
"+ > | 1 2 3 4 5 6 7 8 9 0 a b c d 1 e f ",
"@ , 1 2 g h i j k l m n o p q r s t 1 u ",
"# , 2 g v w x y z A B C D E F G H I 1 u ",
"# ' J K L M N O P Q R S T U V W X Y Z ` ",
"#  ...+.@.#.$.%.&.*.=.-.;.>.,.'.).!.~.{.",
"$ ].^./.(._.:.<.[.}.|.1.2.3.4.5.6.7.8.9.",
"% 0.a.b.c.d.e.f.g.h.i.j.k.l.m.n.o.p.q.r.",
"& s.t.u.v.w.x.y.z.A.B.C.D.E.F.G.H.I.J.K.",
"L.M.N.O.P.Q.R.S.T.U.V.W.X.Y.Z.`. +.+++@+",
"#+$+%+&+*+=+-+;+>+,+'+)+!+~+{+]+^+/+(+_+",
":+<+[+}+|+1+2+3+4+5+6+7+8+9+0+a+b+c+d+e+",
"* f+g+h+i+j+k+l+m+n+o+p+q+r+s+t+u+v+w+x+",
"$ , y+z+A+B+C+D+E+F+G+H+I+J+K+L+M+N+O+P+",
"# , Q+R+S+T+U+V+W+X+Y+Z+`+ @.@v++@@@d u ",
"# , #@$@%@&@*@=@-@;@>@,@'@)@!@~@{@t 1 u ",
"= < 1 #@]@^@/@(@;@>@_@:@<@[@}@|@t 1 1 1@",
"- [ e 1 2@3@4@5@6@7@8@9@0@a@b@d 1 1 c@d@",
"  } f u u ` {.e@f@g@g@h@i@x+P+u u 1@d@  "};
