/* XPM */
static char *logo[] = {
/* columns rows colors chars-per-pixel */
"20 20 2 1 ",
"  c #25A345",
". c None",
/* pixels */
"....................",
"....................",
"....................",
"....................",
"....................",
".......... .........",
".........  .........",
"....................",
"....................",
"........ .... ......",
"........ .... ......",
". .. ..... .........",
".. .  .... .........",
"..  .  .............",
"...  ...............",
"..... ..............",
"....................",
"....................",
"....................",
"...................."
};
