<?xml version="1.0" encoding="UTF-8" standalone="no"?>
<!-- Created with Inkscape (http://www.inkscape.org/) -->

<svg
   xmlns:dc="http://purl.org/dc/elements/1.1/"
   xmlns:cc="http://creativecommons.org/ns#"
   xmlns:rdf="http://www.w3.org/1999/02/22-rdf-syntax-ns#"
   xmlns:svg="http://www.w3.org/2000/svg"
   xmlns="http://www.w3.org/2000/svg"
   xmlns:xlink="http://www.w3.org/1999/xlink"
   xmlns:sodipodi="http://sodipodi.sourceforge.net/DTD/sodipodi-0.dtd"
   xmlns:inkscape="http://www.inkscape.org/namespaces/inkscape"
   width="72.000000pt"
   height="72.000000pt"
   id="svg2448"
   sodipodi:version="0.32"
   inkscape:version="0.48.3.1 r9886"
   sodipodi:docname="tesoreria.svg"
   version="1.1"
   inkscape:export-filename="/home/bogado/Geotexan/src/ginn/imagenes/tesoreria.png"
   inkscape:export-xdpi="51.337925"
   inkscape:export-ydpi="51.337925">
  <defs
     id="defs3">
    <linearGradient
       id="linearGradient2718">
      <stop
         offset="0.0000000"
         style="stop-color:#ffffff;stop-opacity:1.0000000;"
         id="stop2720" />
      <stop
         offset="1.0000000"
         style="stop-color:#b6ecff;stop-opacity:1.0000000;"
         id="stop2719" />
    </linearGradient>
    <linearGradient
       inkscape:collect="always"
       id="linearGradient2617">
      <stop
         style="stop-color:#000000;stop-opacity:1;"
         offset="0"
         id="stop2618" />
      <stop
         style="stop-color:#000000;stop-opacity:0;"
         offset="1"
         id="stop2619" />
    </linearGradient>
    <linearGradient
       id="linearGradient2612">
      <stop
         offset="0.0000000"
         style="stop-color:#fdfdfd;stop-opacity:0.45360824;"
         id="stop2613" />
      <stop
         offset="1.0000000"
         style="stop-color:#ffffff;stop-opacity:0.0000000;"
         id="stop2614" />
    </linearGradient>
    <linearGradient
       id="linearGradient2604">
      <stop
         offset="0.0000000"
         style="stop-color:#a9e2f5;stop-opacity:1.0000000;"
         id="stop2605" />
      <stop
         offset="1.0000000"
         style="stop-color:#bdf2ff;stop-opacity:0.20784314;"
         id="stop2606" />
    </linearGradient>
    <linearGradient
       id="linearGradient2601">
      <stop
         style="stop-color:#000000;stop-opacity:1.0000000;"
         offset="0.0000000"
         id="stop2602" />
      <stop
         style="stop-color:#383e49;stop-opacity:0.0000000;"
         offset="1.0000000"
         id="stop2603" />
    </linearGradient>
    <linearGradient
       id="linearGradient2597">
      <stop
         style="stop-color:#000000;stop-opacity:1.0000000;"
         offset="0.0000000"
         id="stop2598" />
      <stop
         style="stop-color:#383e49;stop-opacity:0;"
         offset="1"
         id="stop2599" />
    </linearGradient>
    <linearGradient
       id="linearGradient2594">
      <stop
         offset="0.0000000"
         style="stop-color:#000000;stop-opacity:1.0000000;"
         id="stop2596" />
      <stop
         offset="1.0000000"
         style="stop-color:#bdf2ff;stop-opacity:0.38431400;"
         id="stop2595" />
    </linearGradient>
    <defs
       id="defs2461">
      <sodipodi:namedview
         id="namedview909" />
      <defs
         id="defs550">
        <linearGradient
           x1="0.0000000"
           y1="0.0000000"
           x2="1.0000000"
           y2="0.0000000"
           id="linearGradient632"
           gradientUnits="objectBoundingBox"
           spreadMethod="pad">
          <stop
             style="stop-color:#ffb700;stop-opacity:1;"
             offset="0.000000"
             id="stop633" />
          <stop
             style="stop-color:#ffd58f;stop-opacity:0;"
             offset="1.000000"
             id="stop634" />
        </linearGradient>
        <linearGradient
           x1="0.0000000"
           y1="0.0000000"
           x2="1.0000000"
           y2="0.0000000"
           id="linearGradient556"
           gradientUnits="objectBoundingBox"
           spreadMethod="pad"
           xlink:href="#linearGradient2594" />
        <linearGradient
           id="linearGradient559"
           xlink:href="#linearGradient632"
           x1="60.644615"
           y1="19.295689"
           x2="35.370575"
           y2="69.142799"
           gradientUnits="userSpaceOnUse"
           spreadMethod="pad" />
        <linearGradient
           xlink:href="#linearGradient632"
           id="linearGradient631"
           x1="85.637657"
           y1="17.443844"
           x2="73.916298"
           y2="54.628181"
           gradientUnits="userSpaceOnUse"
           spreadMethod="pad"
           gradientTransform="scale(0.740666,1.350136)" />
      </defs>
    </defs>
    <sodipodi:namedview
       id="namedview2472"
       pagecolor="#ffffff"
       bordercolor="#666666"
       borderopacity="1.0"
       inkscape:pageopacity="0.0"
       inkscape:pageshadow="2"
       inkscape:zoom="2.4559706"
       inkscape:cx="113.94414"
       inkscape:cy="73.007956"
       inkscape:window-width="812"
       inkscape:window-height="560"
       inkscape:window-x="103"
       inkscape:window-y="56" />
    <metadata
       id="metadata2473">
      <rdf:RDF>
        <cc:Work
           rdf:about="">
          <dc:format>image/svg+xml</dc:format>
          <dc:type
             rdf:resource="http://purl.org/dc/dcmitype/StillImage" />
          <dc:title></dc:title>
        </cc:Work>
      </rdf:RDF>
    </metadata>
    <linearGradient
       inkscape:collect="always"
       xlink:href="#linearGradient2604"
       id="linearGradient2593"
       gradientTransform="matrix(1.354006,0,0,0.738549,3.25,2.125)"
       x1="28.244335"
       y1="96.643951"
       x2="48.778095"
       y2="83.488678"
       gradientUnits="userSpaceOnUse" />
    <linearGradient
       inkscape:collect="always"
       xlink:href="#linearGradient2601"
       id="linearGradient2600"
       gradientTransform="matrix(1.255564,0,0,0.796455,2.9375,1.8125)"
       x1="31.482431"
       y1="80.160988"
       x2="62.873707"
       y2="80.160988"
       gradientUnits="userSpaceOnUse" />
    <linearGradient
       inkscape:collect="always"
       xlink:href="#linearGradient2612"
       id="linearGradient2611"
       gradientTransform="matrix(1.374715,0,0,0.727423,3.25,2.125)"
       x1="56.875603"
       y1="52.044476"
       x2="49.251457"
       y2="72.658920"
       gradientUnits="userSpaceOnUse" />
    <linearGradient
       inkscape:collect="always"
       xlink:href="#linearGradient2617"
       id="linearGradient2620"
       gradientTransform="matrix(1.177037,0,0,0.849591,3.25,2.125)"
       x1="37.093960"
       y1="57.932289"
       x2="24.468754"
       y2="86.898430"
       gradientUnits="userSpaceOnUse"
       spreadMethod="reflect" />
    <linearGradient
       inkscape:collect="always"
       xlink:href="#linearGradient2232"
       id="linearGradient2672"
       gradientUnits="userSpaceOnUse"
       gradientTransform="matrix(1.265567,0.000000,0.000000,1.076422,-2.312426,-3.241730)"
       x1="3.2158668"
       y1="4.1607237"
       x2="18.154388"
       y2="16.156063" />
    <linearGradient
       inkscape:collect="always"
       xlink:href="#linearGradient2240"
       id="linearGradient2673"
       gradientUnits="userSpaceOnUse"
       gradientTransform="matrix(0.395079,-0.446623,1.835427,1.360379,-1.218205,-2.147509)"
       x1="-5.9833484"
       y1="2.5174093"
       x2="-5.7179537"
       y2="8.0350389" />
    <linearGradient
       inkscape:collect="always"
       xlink:href="#linearGradient2240"
       id="linearGradient2674"
       gradientUnits="userSpaceOnUse"
       gradientTransform="matrix(-0.207950,-0.401572,2.545517,-1.610924,-1.218205,-2.147509)"
       x1="-41.563278"
       y1="-3.5996187"
       x2="-42.266258"
       y2="1.7899539" />
    <linearGradient
       inkscape:collect="always"
       xlink:href="#linearGradient2240"
       id="linearGradient2675"
       gradientUnits="userSpaceOnUse"
       gradientTransform="matrix(0.433534,0.000000,0.000000,3.142272,-1.218205,-2.147509)"
       x1="23.552536"
       y1="1.5308467"
       x2="43.742329"
       y2="5.8121576" />
    <linearGradient
       inkscape:collect="always"
       xlink:href="#linearGradient2240"
       id="linearGradient2676"
       gradientUnits="userSpaceOnUse"
       gradientTransform="matrix(2.986147,0.000000,0.000000,0.456200,-1.218205,-2.147509)"
       x1="0.77897149"
       y1="28.688553"
       x2="8.8372555"
       y2="28.688553" />
    <linearGradient
       inkscape:collect="always"
       xlink:href="#linearGradient2266"
       id="linearGradient2677"
       gradientUnits="userSpaceOnUse"
       gradientTransform="matrix(1.865468,0.000000,0.000000,0.849385,-11.02126,-9.741309)"
       x1="12.264884"
       y1="38.241474"
       x2="26.134735"
       y2="38.241474" />
    <linearGradient
       inkscape:collect="always"
       xlink:href="#linearGradient2269"
       id="linearGradient2678"
       gradientUnits="userSpaceOnUse"
       gradientTransform="matrix(1.831791,0.000000,0.000000,0.865002,-11.02126,-9.741309)"
       x1="17.767797"
       y1="49.007622"
       x2="26.615227"
       y2="49.117954" />
    <defs
       id="defs2626">
      <linearGradient
         id="linearGradient2269"
         x1="0.0000000"
         y1="0.50000000"
         x2="1.0000000"
         y2="0.50000000"
         gradientUnits="objectBoundingBox"
         spreadMethod="pad"
         xlink:href="#linearGradient2718" />
      <linearGradient
         id="linearGradient2266">
        <stop
           style="stop-color:#f37160;stop-opacity:1.0000000;"
           offset="0.0000000"
           id="stop2267" />
        <stop
           style="stop-color:#ff0000;stop-opacity:1.0000000;"
           offset="1.0000000"
           id="stop2268" />
      </linearGradient>
      <linearGradient
         id="linearGradient2240">
        <stop
           style="stop-color:#f39d60;stop-opacity:1.0000000;"
           offset="0.0000000"
           id="stop2241" />
        <stop
           style="stop-color:#ff0000;stop-opacity:1.0000000;"
           offset="1.0000000"
           id="stop2242" />
      </linearGradient>
      <linearGradient
         id="linearGradient2232">
        <stop
           style="stop-color:#8db3ff;stop-opacity:1.0000000;"
           offset="0.0000000"
           id="stop2233" />
        <stop
           style="stop-color:#0d5eff;stop-opacity:1.0000000;"
           offset="1.0000000"
           id="stop2234" />
      </linearGradient>
    </defs>
    <sodipodi:namedview
       id="namedview2646"
       pagecolor="#ffffff"
       bordercolor="#235866"
       borderopacity="1.0000000"
       inkscape:pageopacity="1.0"
       inkscape:pageshadow="0"
       inkscape:zoom="1.00000000"
       inkscape:cx="76.938629"
       inkscape:cy="82.756348"
       inkscape:current-layer="svg1520"
       inkscape:window-width="1117"
       inkscape:window-height="798"
       inkscape:window-x="0"
       inkscape:window-y="25" />
    <metadata
       id="metadata2647">
      <rdf:RDF>
        <cc:Work
           rdf:about="">
          <dc:format>image/svg+xml</dc:format>
          <dc:type
             rdf:resource="http://purl.org/dc/dcmitype/StillImage" />
        </cc:Work>
      </rdf:RDF>
    </metadata>
    <linearGradient
       inkscape:collect="always"
       xlink:href="#linearGradient2718"
       id="linearGradient2721"
       gradientUnits="userSpaceOnUse"
       gradientTransform="matrix(1.831791,0.000000,0.000000,0.865002,61.01524,-32.28034)"
       x1="17.767797"
       y1="49.007622"
       x2="26.615227"
       y2="49.117954" />
    <linearGradient
       inkscape:collect="always"
       xlink:href="#linearGradient2266"
       id="linearGradient2722"
       gradientUnits="userSpaceOnUse"
       gradientTransform="matrix(1.865468,0.000000,0.000000,0.849385,61.01524,-32.28034)"
       x1="12.264884"
       y1="38.241474"
       x2="26.134735"
       y2="38.241474" />
    <linearGradient
       inkscape:collect="always"
       xlink:href="#linearGradient2232"
       id="linearGradient2738"
       gradientUnits="userSpaceOnUse"
       gradientTransform="matrix(1.265567,0.000000,0.000000,1.076422,-2.312426,-3.241730)"
       x1="3.2158668"
       y1="4.1607237"
       x2="18.154388"
       y2="16.156063" />
    <linearGradient
       inkscape:collect="always"
       xlink:href="#linearGradient2240"
       id="linearGradient2739"
       gradientUnits="userSpaceOnUse"
       gradientTransform="matrix(0.395079,-0.446623,1.835427,1.360379,-1.218205,-2.147509)"
       x1="-5.9833484"
       y1="2.5174093"
       x2="-5.7179537"
       y2="8.0350389" />
    <linearGradient
       inkscape:collect="always"
       xlink:href="#linearGradient2240"
       id="linearGradient2740"
       gradientUnits="userSpaceOnUse"
       gradientTransform="matrix(-0.207950,-0.401572,2.545517,-1.610924,-1.218205,-2.147509)"
       x1="-41.563278"
       y1="-3.5996187"
       x2="-42.266258"
       y2="1.7899539" />
    <linearGradient
       inkscape:collect="always"
       xlink:href="#linearGradient2240"
       id="linearGradient2741"
       gradientUnits="userSpaceOnUse"
       gradientTransform="matrix(0.433534,0.000000,0.000000,3.142272,-1.218205,-2.147509)"
       x1="23.552536"
       y1="1.5308467"
       x2="43.742329"
       y2="5.8121576" />
    <linearGradient
       inkscape:collect="always"
       xlink:href="#linearGradient2240"
       id="linearGradient2742"
       gradientUnits="userSpaceOnUse"
       gradientTransform="matrix(2.986147,0.000000,0.000000,0.456200,-1.218205,-2.147509)"
       x1="0.77897149"
       y1="28.688553"
       x2="8.8372555"
       y2="28.688553" />
    <radialGradient
       r="3.43041444"
       fy="60.7591972"
       fx="9.37104893"
       cy="60.7591972"
       cx="9.37104893"
       spreadMethod="pad"
       gradientTransform="matrix(1.074967,0.000000,0.000000,0.930261,-2.970606e-7,-1.274941e-6)"
       gradientUnits="userSpaceOnUse"
       id="radialGradient1282"
       xlink:href="#linearGradient619"
       inkscape:collect="always" />
    <linearGradient
       id="linearGradient554">
      <stop
         id="stop555"
         offset="0.000000"
         style="stop-color:#666565;stop-opacity:1;" />
      <stop
         id="stop556"
         offset="1.000000"
         style="stop-color:#ffffff;stop-opacity:1;" />
    </linearGradient>
    <linearGradient
       gradientTransform="scale(1.122498,0.890870)"
       spreadMethod="pad"
       gradientUnits="userSpaceOnUse"
       y2="72.2902298"
       x2="8.33575153"
       y1="79.9603500"
       x1="12.9236002"
       id="linearGradient557"
       xlink:href="#linearGradient554" />
    <linearGradient
       gradientTransform="scale(1.122498,0.890870)"
       spreadMethod="pad"
       gradientUnits="userSpaceOnUse"
       y2="78.4289169"
       x2="12.9945765"
       y1="68.6560287"
       x1="7.79836702"
       id="linearGradient559-4"
       xlink:href="#linearGradient554" />
    <linearGradient
       id="linearGradient563"
       xlink:href="#linearGradient554" />
    <radialGradient
       gradientTransform="scale(1.074784,0.930420)"
       spreadMethod="pad"
       gradientUnits="userSpaceOnUse"
       xlink:href="#linearGradient619"
       id="radialGradient627"
       r="5.5634472"
       fy="55.133288"
       fx="28.736504"
       cy="55.133288"
       cx="28.736504" />
    <linearGradient
       spreadMethod="pad"
       gradientUnits="objectBoundingBox"
       xlink:href="#linearGradient619"
       id="linearGradient626"
       y2="0.00000000"
       x2="1.00000000"
       y1="0.00000000"
       x1="0.00000000" />
    <radialGradient
       spreadMethod="pad"
       gradientTransform="matrix(1.074967,0.000000,0.000000,0.930261,-2.970606e-7,-1.274941e-6)"
       gradientUnits="userSpaceOnUse"
       xlink:href="#linearGradient619"
       id="radialGradient622"
       r="3.43041444"
       fy="60.7591972"
       fx="9.37104893"
       cy="60.7591972"
       cx="9.37104893" />
    <linearGradient
       spreadMethod="pad"
       gradientUnits="objectBoundingBox"
       id="linearGradient619"
       y2="0.00000000"
       x2="1.00000000"
       y1="0.00000000"
       x1="0.00000000">
      <stop
         id="stop620"
         offset="0.00000000"
         style="stop-color:#ffffff;stop-opacity:1;" />
      <stop
         id="stop621"
         offset="1.00000000"
         style="stop-color:#ffffff;stop-opacity:0;" />
    </linearGradient>
    <linearGradient
       y2="54.628181"
       x2="73.916298"
       y1="17.443844"
       x1="85.637657"
       spreadMethod="pad"
       gradientTransform="scale(0.740666,1.350136)"
       gradientUnits="userSpaceOnUse"
       id="linearGradient2189"
       xlink:href="#linearGradient632-0"
       inkscape:collect="always" />
    <linearGradient
       y2="8.3432496"
       x2="64.043017"
       y1="8.3432496"
       x1="60.107236"
       gradientTransform="scale(0.551387,1.813608)"
       gradientUnits="userSpaceOnUse"
       id="linearGradient2188"
       xlink:href="#linearGradient589"
       inkscape:collect="always" />
    <linearGradient
       y2="73.182051"
       x2="11.704953"
       y1="73.182051"
       x1="6.6054738"
       gradientTransform="scale(1.868867,0.535084)"
       gradientUnits="userSpaceOnUse"
       id="linearGradient2187"
       xlink:href="#linearGradient589"
       inkscape:collect="always" />
    <linearGradient
       y2="14.759434"
       x2="70.184024"
       y1="8.8742821"
       x1="64.919166"
       spreadMethod="pad"
       gradientTransform="scale(0.846279,1.181643)"
       gradientUnits="userSpaceOnUse"
       id="linearGradient2186"
       xlink:href="#linearGradient589"
       inkscape:collect="always" />
    <linearGradient
       y2="48.2551422"
       x2="50.0719948"
       y1="25.5889244"
       x1="38.4874878"
       spreadMethod="pad"
       gradientTransform="scale(0.608808,1.642555)"
       gradientUnits="userSpaceOnUse"
       id="linearGradient2185"
       xlink:href="#linearGradient589"
       inkscape:collect="always" />
    <linearGradient
       y2="54.628181"
       x2="73.916298"
       y1="17.443844"
       x1="85.637657"
       spreadMethod="pad"
       gradientTransform="scale(0.740666,1.350136)"
       gradientUnits="userSpaceOnUse"
       id="linearGradient2121"
       xlink:href="#linearGradient632-0"
       inkscape:collect="always" />
    <linearGradient
       y2="8.3432496"
       x2="64.043017"
       y1="8.3432496"
       x1="60.107236"
       gradientTransform="scale(0.551387,1.813608)"
       gradientUnits="userSpaceOnUse"
       id="linearGradient2120"
       xlink:href="#linearGradient589"
       inkscape:collect="always" />
    <linearGradient
       y2="73.182051"
       x2="11.704953"
       y1="73.182051"
       x1="6.6054738"
       gradientTransform="scale(1.868867,0.535084)"
       gradientUnits="userSpaceOnUse"
       id="linearGradient2119"
       xlink:href="#linearGradient589"
       inkscape:collect="always" />
    <linearGradient
       y2="14.759434"
       x2="70.184024"
       y1="8.8742821"
       x1="64.919166"
       spreadMethod="pad"
       gradientTransform="scale(0.846279,1.181643)"
       gradientUnits="userSpaceOnUse"
       id="linearGradient2118"
       xlink:href="#linearGradient589"
       inkscape:collect="always" />
    <linearGradient
       y2="48.2551422"
       x2="50.0719948"
       y1="25.5889244"
       x1="38.4874878"
       spreadMethod="pad"
       gradientTransform="scale(0.608808,1.642555)"
       gradientUnits="userSpaceOnUse"
       id="linearGradient2117"
       xlink:href="#linearGradient589"
       inkscape:collect="always" />
    <metadata
       id="metadata1076">
      <rdf:RDF>
        <cc:Work
           rdf:about="">
          <dc:format>image/svg+xml</dc:format>
          <dc:type
             rdf:resource="http://purl.org/dc/dcmitype/StillImage" />
        </cc:Work>
      </rdf:RDF>
    </metadata>
    <sodipodi:namedview
       inkscape:window-y="56"
       inkscape:window-x="103"
       inkscape:window-height="560"
       inkscape:window-width="812"
       inkscape:cy="73.007956"
       inkscape:cx="113.94414"
       inkscape:zoom="2.4559706"
       inkscape:pageshadow="2"
       inkscape:pageopacity="0.0"
       borderopacity="1.0"
       bordercolor="#666666"
       pagecolor="#ffffff"
       id="namedview1075" />
    <defs
       id="defs1064">
      <sodipodi:namedview
         id="namedview909-5" />
      <defs
         id="defs550-2">
        <linearGradient
           spreadMethod="pad"
           gradientUnits="objectBoundingBox"
           id="linearGradient632-0"
           y2="0.0000000"
           x2="1.0000000"
           y1="0.0000000"
           x1="0.0000000">
          <stop
             id="stop633-2"
             offset="0.000000"
             style="stop-color:#ffb700;stop-opacity:1;" />
          <stop
             id="stop634-6"
             offset="1.000000"
             style="stop-color:#ffd58f;stop-opacity:0;" />
        </linearGradient>
        <linearGradient
           spreadMethod="pad"
           gradientUnits="objectBoundingBox"
           id="linearGradient556-6"
           y2="0.0000000"
           x2="1.0000000"
           y1="0.0000000"
           x1="0.0000000">
          <stop
             id="stop557"
             offset="0.000000"
             style="stop-color:#000000;stop-opacity:1;" />
          <stop
             id="stop558"
             offset="1.000000"
             style="stop-color:#bdf2ff;stop-opacity:0.384314;" />
        </linearGradient>
        <linearGradient
           spreadMethod="pad"
           gradientUnits="userSpaceOnUse"
           y2="69.142799"
           x2="35.370575"
           y1="19.295689"
           x1="60.644615"
           xlink:href="#linearGradient632-0"
           id="linearGradient559-1" />
        <linearGradient
           gradientTransform="scale(0.740666,1.350136)"
           spreadMethod="pad"
           gradientUnits="userSpaceOnUse"
           y2="54.628181"
           x2="73.916298"
           y1="17.443844"
           x1="85.637657"
           id="linearGradient631-0"
           xlink:href="#linearGradient632-0" />
      </defs>
    </defs>
  </defs>
  <sodipodi:namedview
     id="base"
     pagecolor="#ffffff"
     bordercolor="#666666"
     borderopacity="1.0"
     inkscape:pageopacity="0.0"
     inkscape:pageshadow="2"
     inkscape:zoom="5.6568542"
     inkscape:cx="66.978756"
     inkscape:cy="43.85003"
     inkscape:current-layer="svg2448"
     inkscape:window-width="1133"
     inkscape:window-height="737"
     inkscape:window-x="407"
     inkscape:window-y="222"
     showgrid="false"
     inkscape:window-maximized="0" />
  <metadata
     id="metadata4">
    <rdf:RDF>
      <cc:Work
         rdf:about="">
        <dc:format>image/svg+xml</dc:format>
        <dc:type
           rdf:resource="http://purl.org/dc/dcmitype/StillImage" />
      </cc:Work>
    </rdf:RDF>
  </metadata>
  <path
     inkscape:connector-curvature="0"
     style="fill:#000000;fill-opacity:0.39215686;fill-rule:evenodd;stroke:none"
     d="m 27.592251,16.247493 -4.581657,1.938394 2.643264,6.343833 -6.872486,2.643264 c 0,0 3.171916,3.70057 2.114611,11.806579 -1.057306,8.10601 1.762176,25.022899 1.762176,25.022899 0,0 37.534348,-4.757875 41.76357,-4.581657 4.229223,0.176217 10.220621,0.176217 10.220621,0.176217 L 73.408827,50.96236 81.162401,50.25749 70.94178,18.009669 27.592251,16.247493 z"
     id="path2191" />
  <g
     id="g2054"
     transform="matrix(0.79746981,0,0,0.79746981,12.261321,15.138461)">
    <path
       inkscape:connector-curvature="0"
       style="fill:none;stroke:#34674b;stroke-width:5;stroke-linecap:butt;stroke-linejoin:miter;stroke-miterlimit:4;stroke-opacity:1"
       d="m 13.772209,12.853107 c 4.583333,13.125 2.291667,26.5625 4.375,39.375 22.083333,-3.541667 42.291667,-2.708333 63.4375,-4.0625 -3.854167,-12.083333 -3.333333,-26.666667 -5,-40 -20.9375,1.5625 -41.5625,0.625 -62.8125,4.6875 z"
       id="path1856"
       sodipodi:nodetypes="ccccc" />
    <path
       inkscape:connector-curvature="0"
       style="fill:#cbff87;fill-opacity:1;fill-rule:evenodd;stroke:none"
       d="m 13.772209,12.853107 c 4.583333,13.125 2.291667,26.5625 4.375,39.375 22.083333,-3.541667 42.291667,-2.708333 63.4375,-4.0625 -3.854167,-12.083333 -3.333333,-26.666667 -5,-40 -20.9375,1.5625 -41.5625,0.625 -62.8125,4.6875 z"
       id="path1062"
       sodipodi:nodetypes="ccccc" />
    <path
       sodipodi:type="arc"
       style="opacity:0.75268818;fill:#2aaf18;fill-opacity:1;fill-rule:nonzero;stroke:none"
       id="path1839"
       sodipodi:cx="44.525631"
       sodipodi:cy="38.071846"
       sodipodi:rx="16.46233"
       sodipodi:ry="16.130873"
       d="m 60.987961,38.071846 c 0,8.908835 -7.370436,16.130873 -16.46233,16.130873 -9.091894,0 -16.46233,-7.222038 -16.46233,-16.130873 0,-8.908835 7.370436,-16.130873 16.46233,-16.130873 9.091894,0 16.46233,7.222038 16.46233,16.130873 z"
       transform="matrix(0.892618,0,0,0.892618,7.874868,-4.935961)" />
    <g
       id="g1785"
       transform="matrix(0.372824,0,0,0.372824,30.96996,11.31216)">
      <defs
         id="defs1786">
        <linearGradient
           id="linearGradient589">
          <stop
             style="stop-color:#ffffff;stop-opacity:1;"
             offset="0.000000"
             id="stop590" />
          <stop
             style="stop-color:#ffffff;stop-opacity:0;"
             offset="1.000000"
             id="stop591" />
        </linearGradient>
        <linearGradient
           xlink:href="#linearGradient589"
           id="linearGradient592"
           x1="38.487488"
           y1="25.588924"
           x2="50.071995"
           y2="48.255142"
           gradientUnits="userSpaceOnUse"
           gradientTransform="scale(0.608808,1.642555)"
           spreadMethod="pad" />
        <linearGradient
           xlink:href="#linearGradient589"
           id="linearGradient594"
           x1="-0.12901177"
           y1="0.023435321"
           x2="0.70967788"
           y2="0.96093744"
           gradientUnits="objectBoundingBox"
           spreadMethod="pad" />
        <linearGradient
           xlink:href="#linearGradient589"
           id="linearGradient596" />
        <linearGradient
           xlink:href="#linearGradient589"
           id="linearGradient629" />
        <linearGradient
           xlink:href="#linearGradient589"
           id="linearGradient1794" />
      </defs>
      <sodipodi:namedview
         id="namedview1795" />
      <path
         inkscape:connector-curvature="0"
         style="font-size:12px;fill:#000000;fill-opacity:0.3;fill-rule:evenodd;stroke-width:1pt"
         d="M 54.9883,81.4569 C 47.957,81.8163 36.4181,82.8514 28.7969,65.6132 26.3673,59.4294 25.0586,48.4961 33.1836,37.8711 c 4.375,-5.4687 10.6486,-9.8203 19.8673,-7.9453 7.4766,-0.2187 16.3749,10.6912 11.6874,18.3475 -4.6875,7.6562 -13.0942,9.375 -11.4027,11.844 2.3908,2.0941 9.2268,-0.1094 12.426,3.9766 1.7188,3.2813 -4.0545,15.1755 -10.7733,17.363 z"
         id="path662"
         sodipodi:nodetypes="cccccccc"
         transform="matrix(1.259307,0,0,1.259307,-11.09589,-14.04155)" />
      <g
         id="g667"
         transform="matrix(0.972002,0,0,0.972002,0.967511,1.255798)">
        <path
           inkscape:connector-curvature="0"
           transform="matrix(-0.02447984,1.881981,1.881981,0.02447849,-42.67223,-5.662441)"
           style="font-size:12px;fill:#000000;fill-opacity:0.3;fill-rule:evenodd;stroke-width:1pt"
           d="m 28.5938,29.1406 c 0,2.8893 -1.435,5.2343 -3.2032,5.2343 -1.7681,0 -3.2031,-2.345 -3.2031,-5.2343 0,-2.8894 1.435,-5.2344 3.2031,-5.2344 1.7682,0 3.2032,2.345 3.2032,5.2344 z"
           id="path666" />
        <path
           inkscape:connector-curvature="0"
           transform="matrix(1.364979,-0.8957,0.8957,1.364979,-38.54071,9.130011)"
           style="font-size:12px;fill:#000000;fill-opacity:0.3;fill-rule:evenodd;stroke-width:1pt"
           d="m 28.5938,29.1406 c 0,2.8893 -1.435,5.2343 -3.2032,5.2343 -1.7681,0 -3.2031,-2.345 -3.2031,-5.2343 0,-2.8894 1.435,-5.2344 3.2031,-5.2344 1.7682,0 3.2032,2.345 3.2032,5.2344 z"
           id="path665" />
        <path
           inkscape:connector-curvature="0"
           transform="matrix(1.710329,-0.0844919,0.08449188,1.710329,-8.95636,-30.89149)"
           style="font-size:12px;fill:#000000;fill-opacity:0.3;fill-rule:evenodd;stroke-width:1pt"
           d="m 28.5938,29.1406 c 0,2.8893 -1.435,5.2343 -3.2032,5.2343 -1.7681,0 -3.2031,-2.345 -3.2031,-5.2343 0,-2.8894 1.435,-5.2344 3.2031,-5.2344 1.7682,0 3.2032,2.345 3.2032,5.2344 z"
           id="path664" />
        <path
           inkscape:connector-curvature="0"
           transform="matrix(2.056255,0.991635,-0.991636,2.056254,34.69159,-72.58045)"
           style="font-size:12px;fill:#000000;fill-opacity:0.3;fill-rule:evenodd;stroke-width:1pt"
           d="m 28.5938,29.1406 c 0,2.8893 -1.435,5.2343 -3.2032,5.2343 -1.7681,0 -3.2031,-2.345 -3.2031,-5.2343 0,-2.8894 1.435,-5.2344 3.2031,-5.2344 1.7682,0 3.2032,2.345 3.2032,5.2344 z"
           id="path663" />
        <path
           sodipodi:type="arc"
           style="font-size:12px;fill-rule:evenodd;stroke-width:1pt"
           id="path559"
           d="m 46.84584,44.479984 c 0,4.027284 -2.423835,7.292042 -5.413787,7.292042 -2.989953,0 -5.413788,-3.264758 -5.413788,-7.292042 0,-4.027283 2.423835,-7.292041 5.413788,-7.292041 2.989952,0 5.413787,3.264758 5.413787,7.292041 z"
           sodipodi:cx="41.432053"
           sodipodi:cy="44.479984"
           sodipodi:rx="5.4137878"
           sodipodi:ry="7.2920418"
           transform="matrix(1.766225,0,0,1.464769,-34.91358,-20.35575)" />
        <path
           inkscape:connector-curvature="0"
           transform="matrix(1.364979,-0.8957,0.8957,1.364979,-41.04071,8.192511)"
           style="font-size:12px;fill-rule:evenodd;stroke-width:1pt"
           d="m 28.5938,29.1406 c 0,2.8893 -1.435,5.2343 -3.2032,5.2343 -1.7681,0 -3.2031,-2.345 -3.2031,-5.2343 0,-2.8894 1.435,-5.2344 3.2031,-5.2344 1.7682,0 3.2032,2.345 3.2032,5.2344 z"
           id="path583" />
        <path
           inkscape:connector-curvature="0"
           style="font-size:12px;fill-rule:evenodd;stroke-width:1pt"
           d="M 54.9883,81.4569 C 47.957,81.8163 36.4181,82.8514 28.7969,65.6132 26.3673,59.4294 25.0586,48.4961 33.1836,37.8711 c 4.375,-5.4687 10.6486,-9.8203 19.8673,-7.9453 7.4766,-0.2187 16.3749,10.6912 11.6874,18.3475 -4.6875,7.6562 -13.0942,9.375 -11.4027,11.844 2.3908,2.0941 9.2268,-0.1094 12.426,3.9766 1.7188,3.2813 -4.0545,15.1755 -10.7733,17.363 z"
           id="path570"
           sodipodi:nodetypes="cccccccc"
           transform="matrix(1.259307,0,0,1.259307,-15.1584,-13.41655)" />
        <path
           inkscape:connector-curvature="0"
           style="font-size:12px;fill:#487196;fill-rule:evenodd;stroke-width:1pt"
           d="m 54.8438,80.1562 c -7.0313,0.9375 -18.2812,1.25 -25.4688,-14.6875 -1.875,-4.6874 -3.5938,-16.25 4.5312,-26.875 4.375,-5.4687 10.9376,-9.5313 20.1563,-7.6563 7.1876,0.9375 14.0626,7.6563 9.3751,15.3126 -4.6875,7.6562 -16.5626,9.375 -13.2814,15.3125 2.9689,6.7187 11.2501,0.4687 13.4376,4.8437 1.7188,3.2813 -2.0312,11.5625 -8.75,13.75 z"
           id="path569"
           sodipodi:nodetypes="cccccccc"
           transform="matrix(1.164757,0,0,1.164757,-10.7657,-8.169355)" />
        <path
           inkscape:connector-curvature="0"
           style="font-size:12px;fill:url(#linearGradient2117);fill-rule:evenodd;stroke-width:1pt"
           d="M 42.5,76.5625 C 42.5,76.7187 30.4688,63.125 32.5,55 c 2.0313,-8.125 3.4375,-12.9688 3.4375,-12.9688 0,0 -7.3437,6.7188 -6.0937,16.25 1.25,9.5313 5.4687,16.25 12.6562,18.2813 z"
           id="path588"
           transform="matrix(1.164757,0,0,1.164757,-10.7657,-8.169355)" />
        <path
           inkscape:connector-curvature="0"
           style="font-size:12px;fill-rule:evenodd;stroke-width:1pt"
           d="m 42.8125,68.2812 c 0,0 2.3437,1.5626 7.8126,2.9687 4.6875,0.6251 11.0937,0.7813 12.9687,-0.7812 1.875,-1.875 3.5938,-5 3.5938,-5 0,0 -2.9688,7.0313 -4.375,9.0625 -1.4063,2.0313 -3.125,4.2188 -5.7813,5.1563 -1.7187,0.625 -4.8437,1.4063 -8.2812,-1.0938 C 45.9376,76.25 43.75,74.8437 42.8125,68.2812 z"
           id="path567"
           sodipodi:nodetypes="cccccccc"
           transform="matrix(1.164757,0,0,1.164757,-10.7657,-8.169355)" />
        <path
           sodipodi:type="arc"
           style="font-size:12px;fill-rule:evenodd;stroke-width:1pt"
           id="path560"
           d="m 46.84584,44.479984 c 0,4.027284 -2.423835,7.292042 -5.413787,7.292042 -2.989953,0 -5.413788,-3.264758 -5.413788,-7.292042 0,-4.027283 2.423835,-7.292041 5.413788,-7.292041 2.989952,0 5.413787,3.264758 5.413787,7.292041 z"
           sodipodi:cx="41.432053"
           sodipodi:cy="44.479984"
           sodipodi:rx="5.4137878"
           sodipodi:ry="7.2920418"
           transform="matrix(1.411826,0,0,1.411826,-22.03179,-18.64424)" />
        <path
           sodipodi:type="arc"
           style="font-size:12px;fill-rule:evenodd;stroke-width:1pt"
           id="path561"
           d="m 46.84584,44.479984 c 0,4.027284 -2.423835,7.292042 -5.413787,7.292042 -2.989953,0 -5.413788,-3.264758 -5.413788,-7.292042 0,-4.027283 2.423835,-7.292041 5.413788,-7.292041 2.989952,0 5.413787,3.264758 5.413787,7.292041 z"
           sodipodi:cx="41.432053"
           sodipodi:cy="44.479984"
           sodipodi:rx="5.4137878"
           sodipodi:ry="7.2920418"
           transform="matrix(1.60199,0,0,1.601992,-15.49755,-29.67655)" />
        <path
           sodipodi:type="arc"
           style="font-size:12px;fill:#ffffff;fill-rule:evenodd;stroke-width:1pt"
           id="path562"
           d="m 46.84584,44.479984 c 0,4.027284 -2.423835,7.292042 -5.413787,7.292042 -2.989953,0 -5.413788,-3.264758 -5.413788,-7.292042 0,-4.027283 2.423835,-7.292041 5.413788,-7.292041 2.989952,0 5.413787,3.264758 5.413787,7.292041 z"
           sodipodi:cx="41.432053"
           sodipodi:cy="44.479984"
           sodipodi:rx="5.4137878"
           sodipodi:ry="7.2920418"
           transform="matrix(1.321643,0,0,1.321643,-3.882174,-17.20666)" />
        <path
           sodipodi:type="arc"
           style="font-size:12px;fill:#ffffff;fill-rule:evenodd;stroke-width:1pt"
           id="path558"
           d="m 46.84584,44.479984 c 0,4.027284 -2.423835,7.292042 -5.413787,7.292042 -2.989953,0 -5.413788,-3.264758 -5.413788,-7.292042 0,-4.027283 2.423835,-7.292041 5.413788,-7.292041 2.989952,0 5.413787,3.264758 5.413787,7.292041 z"
           sodipodi:cx="41.432053"
           sodipodi:cy="44.479984"
           sodipodi:rx="5.4137878"
           sodipodi:ry="7.2920418"
           transform="matrix(1.164757,0,0,1.164757,-11.79521,-7.6546)" />
        <path
           inkscape:connector-curvature="0"
           style="font-size:12px;fill-rule:evenodd;stroke-width:1pt"
           d="m 44.6361,46.3582 c 0,1.7687 -1.0889,3.2041 -2.4306,3.2041 -1.3418,0 -2.4307,-1.4354 -2.4307,-3.2041 0,-1.7686 1.0889,-3.204 2.4307,-3.204 1.3417,0 2.4306,1.4354 2.4306,3.204 z"
           id="path555"
           transform="matrix(1.164757,0,0,1.164757,-12.76038,-9.391901)" />
        <path
           inkscape:connector-curvature="0"
           style="font-size:12px;fill-rule:evenodd;stroke-width:1pt"
           d="m 56.3476,44.48 c 0,2.0736 -1.3859,3.7565 -3.0936,3.7565 -1.7077,0 -3.0936,-1.6829 -3.0936,-3.7565 0,-2.0736 1.3859,-3.7565 3.0936,-3.7565 1.7077,0 3.0936,1.6829 3.0936,3.7565 z"
           id="path554"
           transform="matrix(1.164757,0,0,1.164757,-10.7657,-8.169355)" />
        <path
           sodipodi:type="arc"
           style="font-size:12px;fill:#ffffff;fill-rule:evenodd;stroke-width:1pt"
           id="path556"
           d="m 43.531283,45.03241 c 0,0.793252 -0.544127,1.43631 -1.215342,1.43631 -0.671215,0 -1.215342,-0.643058 -1.215342,-1.43631 0,-0.793252 0.544127,-1.43631 1.215342,-1.43631 0.671215,0 1.215342,0.643058 1.215342,1.43631 z"
           sodipodi:cx="42.315941"
           sodipodi:cy="45.03241"
           sodipodi:rx="1.215342"
           sodipodi:ry="1.4363101"
           transform="matrix(1.164757,0,0,1.164757,-12.76038,-9.391901)" />
        <path
           sodipodi:type="arc"
           style="font-size:12px;fill:#ffffff;fill-rule:evenodd;stroke-width:1pt"
           id="path557"
           d="m 54.800797,43.5961 c 0,0.854273 -0.692526,1.546799 -1.546799,1.546799 -0.854274,0 -1.546799,-0.692526 -1.546799,-1.546799 0,-0.854274 0.692525,-1.546799 1.546799,-1.546799 0.854273,0 1.546799,0.692525 1.546799,1.546799 z"
           sodipodi:cx="53.253998"
           sodipodi:cy="43.5961"
           sodipodi:rx="1.5467989"
           sodipodi:ry="1.5467989"
           transform="matrix(1.076514,0,0,1.164757,-6.475862,-9.352312)" />
        <path
           inkscape:connector-curvature="0"
           style="font-size:12px;fill:#ffffff;fill-rule:evenodd;stroke-width:1pt"
           d="m 47.1875,71.0937 -0.7812,4.0625 c 0,0 -2.3438,-3.75 -2.3438,-5 0.4687,-0.9374 0.7813,0.9375 3.125,0.9375 z"
           id="path563"
           sodipodi:nodetypes="cccc"
           transform="matrix(1.164757,0,0,1.164757,-10.7657,-8.169355)" />
        <path
           inkscape:connector-curvature="0"
           style="font-size:12px;fill:#ffffff;fill-rule:evenodd;stroke-width:1pt"
           d="m 48.2813,71.875 c 0,0 -0.4688,4.0624 -0.3125,4.3749 0.1562,0.3125 4.5312,2.9688 5.1562,2.0313 0.6251,-0.9375 0.9376,-5.3125 0.9376,-5.3125 0,0 -3.5938,0.3125 -5.7813,-1.0937 z"
           id="path564"
           sodipodi:nodetypes="ccccc"
           transform="matrix(1.164757,0,0,1.164757,-10.7657,-8.169355)" />
        <path
           inkscape:connector-curvature="0"
           style="font-size:12px;fill:#ffffff;fill-rule:evenodd;stroke-width:1pt"
           d="m 55.4688,72.8125 -0.625,5.625 c 0,0 1.7187,0.4687 3.2813,-0.9375 1.5625,-1.4063 1.7187,-4.6875 1.7187,-4.6875 l -4.375,0 z"
           id="path565"
           sodipodi:nodetypes="ccccc"
           transform="matrix(1.164757,0,0,1.164757,-10.7657,-8.169355)" />
        <path
           inkscape:connector-curvature="0"
           style="font-size:12px;fill:#ffffff;fill-rule:evenodd;stroke-width:1pt"
           d="m 60.7813,72.1875 c 0,0.1562 -0.4687,4.0624 -0.4687,4.0624 0,0 3.125,-4.5312 3.2812,-4.5312 0.1563,0 -2.6562,0.4688 -2.8125,0.4688 z"
           id="path566"
           sodipodi:nodetypes="cccc"
           transform="matrix(1.164757,0,0,1.164757,-10.7657,-8.169355)" />
        <path
           inkscape:connector-curvature="0"
           style="font-size:12px;fill-rule:evenodd;stroke-width:1pt"
           d="m 40.1563,71.7187 c 0,-0.4687 0.7812,-2.5 2.9687,-3.4375 2.1875,-0.9375 3.75,-1.5625 3.75,-1.5625 0,0 -7.6562,-1.4062 -6.7187,5 z"
           id="path568"
           transform="matrix(1.164757,0,0,1.164757,-10.7657,-8.169355)" />
        <path
           inkscape:connector-curvature="0"
           transform="matrix(0.973815,-0.639018,0.639018,0.973815,-23.62893,13.07393)"
           style="font-size:12px;fill:#476f93;fill-rule:evenodd;stroke-width:1pt"
           d="m 28.5938,29.1406 c 0,2.8893 -1.435,5.2343 -3.2032,5.2343 -1.7681,0 -3.2031,-2.345 -3.2031,-5.2343 0,-2.8894 1.435,-5.2344 3.2031,-5.2344 1.7682,0 3.2032,2.345 3.2032,5.2344 z"
           id="path582" />
        <path
           inkscape:connector-curvature="0"
           transform="matrix(1.710329,-0.0844919,0.08449188,1.710329,-10.51886,-31.204)"
           style="font-size:12px;fill-rule:evenodd;stroke-width:1pt"
           d="m 28.5938,29.1406 c 0,2.8893 -1.435,5.2343 -3.2032,5.2343 -1.7681,0 -3.2031,-2.345 -3.2031,-5.2343 0,-2.8894 1.435,-5.2344 3.2031,-5.2344 1.7682,0 3.2032,2.345 3.2032,5.2344 z"
           id="path581" />
        <path
           inkscape:connector-curvature="0"
           transform="matrix(1.163338,-0.05747005,0.05747005,1.163338,4.157015,-15.95047)"
           style="font-size:12px;fill:#476f93;fill-rule:evenodd;stroke-width:1pt"
           d="m 28.5938,29.1406 c 0,2.8893 -1.435,5.2343 -3.2032,5.2343 -1.7681,0 -3.2031,-2.345 -3.2031,-5.2343 0,-2.8894 1.435,-5.2344 3.2031,-5.2344 1.7682,0 3.2032,2.345 3.2032,5.2344 z"
           id="path580" />
        <path
           inkscape:connector-curvature="0"
           transform="matrix(2.056255,0.991635,-0.991636,2.056254,33.12909,-73.51795)"
           style="font-size:12px;fill-rule:evenodd;stroke-width:1pt"
           d="m 28.5938,29.1406 c 0,2.8893 -1.435,5.2343 -3.2032,5.2343 -1.7681,0 -3.2031,-2.345 -3.2031,-5.2343 0,-2.8894 1.435,-5.2344 3.2031,-5.2344 1.7682,0 3.2032,2.345 3.2032,5.2344 z"
           id="path579" />
        <path
           inkscape:connector-curvature="0"
           transform="matrix(1.549889,0.747436,-0.747436,1.549887,38.87003,-52.56182)"
           style="font-size:12px;fill:#476f93;fill-rule:evenodd;stroke-width:1pt"
           d="m 28.5938,29.1406 c 0,2.8893 -1.435,5.2343 -3.2032,5.2343 -1.7681,0 -3.2031,-2.345 -3.2031,-5.2343 0,-2.8894 1.435,-5.2344 3.2031,-5.2344 1.7682,0 3.2032,2.345 3.2032,5.2344 z"
           id="path578" />
        <path
           inkscape:connector-curvature="0"
           style="font-size:12px;fill-rule:evenodd;stroke-width:1pt"
           d="m 58.9063,24.2187 c 0,0 -2.8125,-4.2188 -1.0937,-6.5625 1.7187,-2.3438 3.9062,-1.7188 3.9062,-1.7188 -3.5938,2.0313 -3.75,2.9688 -2.0312,5.1564 0.4687,2.8124 -0.7813,3.4374 -0.7813,3.1249 z"
           id="path584"
           sodipodi:nodetypes="ccccc"
           transform="matrix(1.164757,0,0,1.164757,-12.64071,-7.544346)" />
        <path
           inkscape:connector-curvature="0"
           transform="matrix(-0.02447984,1.881981,1.881981,0.02447849,-43.29723,-8.474951)"
           style="font-size:12px;fill-rule:evenodd;stroke-width:1pt"
           d="m 28.5938,29.1406 c 0,2.8893 -1.435,5.2343 -3.2032,5.2343 -1.7681,0 -3.2031,-2.345 -3.2031,-5.2343 0,-2.8894 1.435,-5.2344 3.2031,-5.2344 1.7682,0 3.2032,2.345 3.2032,5.2344 z"
           id="path585" />
        <path
           inkscape:connector-curvature="0"
           transform="matrix(-0.01807543,1.38947,1.389471,0.01807398,-29.10785,4.2169)"
           style="font-size:12px;fill:#476f93;fill-rule:evenodd;stroke-width:1pt"
           d="m 28.5938,29.1406 c 0,2.8893 -1.435,5.2343 -3.2032,5.2343 -1.7681,0 -3.2031,-2.345 -3.2031,-5.2343 0,-2.8894 1.435,-5.2344 3.2031,-5.2344 1.7682,0 3.2032,2.345 3.2032,5.2344 z"
           id="path586" />
        <path
           inkscape:connector-curvature="0"
           style="font-size:12px;fill-rule:evenodd;stroke-width:1pt"
           d="m 58.9063,24.2187 c 0,0 -2.8125,-4.2188 -1.0937,-6.5625 1.7187,-2.3438 3.9062,-1.7188 3.9062,-1.7188 -3.5938,2.0313 -3.75,2.9688 -2.0312,5.1564 0.4687,2.8124 -0.7813,3.4374 -0.7813,3.1249 z"
           id="path587"
           sodipodi:nodetypes="ccccc"
           transform="matrix(-0.419572,0.841862,0.841862,0.419572,21.98523,-16.79764)" />
        <path
           inkscape:connector-curvature="0"
           style="font-size:12px;fill:url(#linearGradient2118);fill-rule:evenodd;stroke-width:1pt"
           d="m 60.9376,10.3124 c 0,0 -5.3125,2.3438 -5.3125,6.25 0,3.9063 1.0937,-2.9687 5.3125,-6.25 z"
           id="path593"
           transform="matrix(1.164757,0,0,1.164757,-12.64071,-7.544346)" />
        <path
           inkscape:connector-curvature="0"
           style="font-size:12px;fill:url(#linearGradient2119);fill-rule:evenodd;stroke-width:1pt"
           d="m 21.875,40.3125 c 0,0 -7.5,-2.3438 -9.0625,-0.1563 -1.5625,2.1875 0.625,-6.4063 9.0625,0.1563 z"
           id="path595"
           transform="matrix(1.164757,0,0,1.164757,-9.203198,-7.856855)" />
        <path
           inkscape:connector-curvature="0"
           style="fill:url(#linearGradient2120);fill-opacity:1;fill-rule:evenodd;stroke:none"
           d="m 35.3125,11.5624 c 0,0 -3.125,2.8125 -1.875,6.25 1.25,3.4375 0,-4.0625 1.875,-6.25 z"
           id="path628"
           transform="translate(-0.3125,0)" />
        <path
           inkscape:connector-curvature="0"
           style="fill:url(#linearGradient2121);fill-opacity:1;fill-rule:evenodd;stroke:none"
           d="m 17.1875,20.9374 c 0,0 -1.25,3.75 1.5625,6.25 2.8125,2.5 -0.9375,-3.125 -1.5625,-6.25 z"
           id="path630"
           transform="translate(-0.3125,0)" />
      </g>
    </g>
    <g
       id="g1849"
       transform="matrix(0.791858,0,0,0.791858,6.093485,3.846897)">
      <path
         inkscape:connector-curvature="0"
         transform="matrix(0.987365,-0.158461,0.158461,0.987365,-9.323903,8.018214)"
         style="font-size:6px;font-style:normal;font-variant:normal;font-weight:bold;font-stretch:normal;writing-mode:lr-tb;text-anchor:start;fill:#34674b;fill-opacity:1;stroke:none;font-family:Bitstream Vera Serif"
         d="m 24.015308,50.539806 c -0.08789,-0.386715 -0.234379,-0.666012 -0.439453,-0.83789 -0.205081,-0.173824 -0.494144,-0.260738 -0.867187,-0.260742 -0.453128,4e-6 -0.786135,0.1543 -0.999024,0.46289 -0.210939,0.306644 -0.316407,0.791019 -0.316406,1.453125 -1e-6,0.656252 0.101561,1.13965 0.304688,1.450195 0.203123,0.308595 0.519528,0.462891 0.949218,0.462891 0.16406,0 0.316403,-0.01855 0.457032,-0.05566 0.140621,-0.03711 0.268551,-0.09277 0.383789,-0.166992 l 0,-1.201172 -0.527344,0 0,-0.351563 1.576172,0 0,1.678711 c -0.32813,0.152344 -0.656254,0.265626 -0.984375,0.339844 -0.326175,0.07422 -0.660159,0.111328 -1.001953,0.111328 -0.750002,0 -1.339845,-0.202148 -1.769532,-0.606445 -0.427734,-0.404296 -0.641601,-0.958006 -0.641601,-1.661133 0,-0.705075 0.213867,-1.259762 0.641601,-1.664062 0.429687,-0.404293 1.01953,-0.606441 1.769532,-0.606446 0.312497,5e-6 0.620114,0.03126 0.922851,0.09375 0.302731,0.06251 0.607418,0.157231 0.914063,0.28418 l 0,1.075195 -0.372071,0 m 1.816407,3 0,-0.354492 0.820312,0 0,-3.539062 -0.911133,0.539062 0,-0.436523 1.098633,-0.66211 0.922852,0 0,4.098633 0.823242,0 0,0.354492 -2.753906,0 m 5.4375,-0.257812 c 0.234372,0 0.394528,-0.106445 0.480468,-0.319336 0.08789,-0.21289 0.131834,-0.748046 0.131836,-1.605469 -2e-6,-0.851559 -0.04395,-1.385738 -0.131836,-1.602539 -0.08594,-0.216793 -0.246096,-0.325191 -0.480468,-0.325195 -0.234377,4e-6 -0.39551,0.106449 -0.483399,0.319336 -0.08594,0.212894 -0.128908,0.749026 -0.128906,1.608398 -2e-6,0.857423 0.04297,1.392579 0.128906,1.605469 0.08789,0.212891 0.249022,0.319336 0.483399,0.319336 m 0,0.342773 c -0.583986,0 -1.031251,-0.194336 -1.341797,-0.583008 -0.310548,-0.390624 -0.465821,-0.952146 -0.465821,-1.68457 0,-0.732419 0.155273,-1.293942 0.465821,-1.68457 0.310546,-0.390621 0.757811,-0.585933 1.341797,-0.585938 0.582028,5e-6 1.028317,0.195317 1.338867,0.585938 0.310543,0.390628 0.465816,0.952151 0.46582,1.68457 -4e-6,0.732424 -0.155277,1.293946 -0.46582,1.68457 -0.31055,0.388672 -0.756839,0.583008 -1.338867,0.583008 m 4.171875,-0.342773 c 0.234372,0 0.394528,-0.106445 0.480468,-0.319336 0.08789,-0.21289 0.131834,-0.748046 0.131836,-1.605469 -2e-6,-0.851559 -0.04395,-1.385738 -0.131836,-1.602539 -0.08594,-0.216793 -0.246096,-0.325191 -0.480468,-0.325195 -0.234377,4e-6 -0.39551,0.106449 -0.483399,0.319336 -0.08594,0.212894 -0.128908,0.749026 -0.128906,1.608398 -2e-6,0.857423 0.04297,1.392579 0.128906,1.605469 0.08789,0.212891 0.249022,0.319336 0.483399,0.319336 m 0,0.342773 c -0.583986,0 -1.031251,-0.194336 -1.341797,-0.583008 -0.310548,-0.390624 -0.465821,-0.952146 -0.465821,-1.68457 0,-0.732419 0.155273,-1.293942 0.465821,-1.68457 0.310546,-0.390621 0.757811,-0.585933 1.341797,-0.585938 0.582028,5e-6 1.028317,0.195317 1.338867,0.585938 0.310543,0.390628 0.465816,0.952151 0.46582,1.68457 -4e-6,0.732424 -0.155277,1.293946 -0.46582,1.68457 -0.31055,0.388672 -0.756839,0.583008 -1.338867,0.583008"
         id="path1850" />
      <path
         inkscape:connector-curvature="0"
         style="fill:none;stroke:#34674b;stroke-width:0.625;stroke-linecap:round;stroke-linejoin:round;stroke-miterlimit:4;stroke-opacity:1"
         d="m 20.32932,51.882525 1.325825,6.629126"
         id="path1851" />
    </g>
    <g
       id="g1846"
       transform="matrix(0.846863,0.0657378,-0.0657378,0.846863,48.8298,-35.05809)">
      <path
         inkscape:connector-curvature="0"
         transform="matrix(0.987365,-0.158461,0.158461,0.987365,-9.323903,8.018214)"
         style="font-size:6px;font-style:normal;font-variant:normal;font-weight:bold;font-stretch:normal;writing-mode:lr-tb;text-anchor:start;fill:#34674b;fill-opacity:1;stroke:none;font-family:Bitstream Vera Serif"
         d="m 24.015308,50.539806 c -0.08789,-0.386715 -0.234379,-0.666012 -0.439453,-0.83789 -0.205081,-0.173824 -0.494144,-0.260738 -0.867187,-0.260742 -0.453128,4e-6 -0.786135,0.1543 -0.999024,0.46289 -0.210939,0.306644 -0.316407,0.791019 -0.316406,1.453125 -1e-6,0.656252 0.101561,1.13965 0.304688,1.450195 0.203123,0.308595 0.519528,0.462891 0.949218,0.462891 0.16406,0 0.316403,-0.01855 0.457032,-0.05566 0.140621,-0.03711 0.268551,-0.09277 0.383789,-0.166992 l 0,-1.201172 -0.527344,0 0,-0.351563 1.576172,0 0,1.678711 c -0.32813,0.152344 -0.656254,0.265626 -0.984375,0.339844 -0.326175,0.07422 -0.660159,0.111328 -1.001953,0.111328 -0.750002,0 -1.339845,-0.202148 -1.769532,-0.606445 -0.427734,-0.404296 -0.641601,-0.958006 -0.641601,-1.661133 0,-0.705075 0.213867,-1.259762 0.641601,-1.664062 0.429687,-0.404293 1.01953,-0.606441 1.769532,-0.606446 0.312497,5e-6 0.620114,0.03126 0.922851,0.09375 0.302731,0.06251 0.607418,0.157231 0.914063,0.28418 l 0,1.075195 -0.372071,0 m 1.816407,3 0,-0.354492 0.820312,0 0,-3.539062 -0.911133,0.539062 0,-0.436523 1.098633,-0.66211 0.922852,0 0,4.098633 0.823242,0 0,0.354492 -2.753906,0 m 5.4375,-0.257812 c 0.234372,0 0.394528,-0.106445 0.480468,-0.319336 0.08789,-0.21289 0.131834,-0.748046 0.131836,-1.605469 -2e-6,-0.851559 -0.04395,-1.385738 -0.131836,-1.602539 -0.08594,-0.216793 -0.246096,-0.325191 -0.480468,-0.325195 -0.234377,4e-6 -0.39551,0.106449 -0.483399,0.319336 -0.08594,0.212894 -0.128908,0.749026 -0.128906,1.608398 -2e-6,0.857423 0.04297,1.392579 0.128906,1.605469 0.08789,0.212891 0.249022,0.319336 0.483399,0.319336 m 0,0.342773 c -0.583986,0 -1.031251,-0.194336 -1.341797,-0.583008 -0.310548,-0.390624 -0.465821,-0.952146 -0.465821,-1.68457 0,-0.732419 0.155273,-1.293942 0.465821,-1.68457 0.310546,-0.390621 0.757811,-0.585933 1.341797,-0.585938 0.582028,5e-6 1.028317,0.195317 1.338867,0.585938 0.310543,0.390628 0.465816,0.952151 0.46582,1.68457 -4e-6,0.732424 -0.155277,1.293946 -0.46582,1.68457 -0.31055,0.388672 -0.756839,0.583008 -1.338867,0.583008 m 4.171875,-0.342773 c 0.234372,0 0.394528,-0.106445 0.480468,-0.319336 0.08789,-0.21289 0.131834,-0.748046 0.131836,-1.605469 -2e-6,-0.851559 -0.04395,-1.385738 -0.131836,-1.602539 -0.08594,-0.216793 -0.246096,-0.325191 -0.480468,-0.325195 -0.234377,4e-6 -0.39551,0.106449 -0.483399,0.319336 -0.08594,0.212894 -0.128908,0.749026 -0.128906,1.608398 -2e-6,0.857423 0.04297,1.392579 0.128906,1.605469 0.08789,0.212891 0.249022,0.319336 0.483399,0.319336 m 0,0.342773 c -0.583986,0 -1.031251,-0.194336 -1.341797,-0.583008 -0.310548,-0.390624 -0.465821,-0.952146 -0.465821,-1.68457 0,-0.732419 0.155273,-1.293942 0.465821,-1.68457 0.310546,-0.390621 0.757811,-0.585933 1.341797,-0.585938 0.582028,5e-6 1.028317,0.195317 1.338867,0.585938 0.310543,0.390628 0.465816,0.952151 0.46582,1.68457 -4e-6,0.732424 -0.155277,1.293946 -0.46582,1.68457 -0.31055,0.388672 -0.756839,0.583008 -1.338867,0.583008"
         id="text1840" />
      <path
         inkscape:connector-curvature="0"
         style="fill:none;stroke:#34674b;stroke-width:0.625;stroke-linecap:round;stroke-linejoin:round;stroke-miterlimit:4;stroke-opacity:1"
         d="m 20.32932,51.882525 1.325825,6.629126"
         id="path1843" />
    </g>
    <path
       inkscape:connector-curvature="0"
       style="fill:none;stroke:#34674b;stroke-width:0.625;stroke-linecap:round;stroke-linejoin:round;stroke-miterlimit:4;stroke-opacity:1"
       d="m 16.97951,15.042117 c 0,0 15.324698,-2.934392 21.725377,-2.554138"
       id="path1853" />
    <path
       inkscape:connector-curvature="0"
       style="fill:none;stroke:#34674b;stroke-width:0.625;stroke-linecap:round;stroke-linejoin:round;stroke-miterlimit:4;stroke-opacity:1"
       d="m 17.863393,16.809884 c 0,0 15.324698,-2.934392 21.725377,-2.554138"
       id="path1854" />
    <path
       inkscape:connector-curvature="0"
       style="fill:none;stroke:#34674b;stroke-width:0.625;stroke-linecap:round;stroke-linejoin:round;stroke-miterlimit:4;stroke-opacity:1"
       d="m 56.091354,44.873184 c 0,0 15.324698,-2.934392 21.725377,-2.554138"
       id="path1855" />
    <path
       inkscape:connector-curvature="0"
       style="fill:none;stroke:#34674b;stroke-width:0.625;stroke-linecap:round;stroke-linejoin:round;stroke-miterlimit:4;stroke-opacity:1"
       d="m 56.754266,47.524835 c 0,0 15.324698,-2.934392 21.725377,-2.554138"
       id="path1852" />
  </g>
  <g
     inkscape:label="Layer 1"
     id="layer1-5"
     transform="matrix(0.79746981,0,0,0.79746981,14.728367,1.3934944)" />
  <path
     inkscape:connector-curvature="0"
     style="font-size:12px;fill:none;stroke:#34674b;stroke-width:3.98734903"
     d="m 27.825899,16.577548 c 3.65507,10.466792 1.827535,21.182792 3.48893,31.400374 C 48.925621,45.15355 65.041157,45.818108 81.90432,44.738201 78.830739,35.102108 79.246088,23.472339 77.916971,12.839409 61.219947,14.085455 44.772132,13.337827 27.825899,16.577548 z"
     id="path2123"
     sodipodi:nodetypes="ccccc" />
  <path
     inkscape:connector-curvature="0"
     style="font-size:12px;fill:#cbff87;fill-rule:evenodd;stroke-width:0.25"
     d="m 27.825899,16.577548 c 3.65507,10.466792 1.827535,21.182792 3.48893,31.400374 C 48.925621,45.15355 65.041157,45.818108 81.90432,44.738201 78.830739,35.102108 79.246088,23.472339 77.916971,12.839409 61.219947,14.085455 44.772132,13.337827 27.825899,16.577548 z"
     id="path2124"
     sodipodi:nodetypes="ccccc" />
  <path
     sodipodi:type="arc"
     style="font-size:12px;opacity:0.752688;fill:#2aaf18;stroke-width:4.5625;stroke-linecap:round;stroke-linejoin:round"
     id="path2125"
     sodipodi:cx="44.525631"
     sodipodi:cy="38.071846"
     sodipodi:rx="16.46233"
     sodipodi:ry="16.130873"
     d="m 60.987961,38.071846 a 16.46233,16.130873 0 1 1 -32.92466,0 16.46233,16.130873 0 1 1 32.92466,0 z"
     transform="matrix(0.71183591,0,0,0.71183591,23.122949,2.3913038)" />
  <g
     id="g2175"
     transform="matrix(0.63148285,0,0,0.63148285,21.702347,9.3953703)"
     style="font-size:12px">
    <path
       inkscape:connector-curvature="0"
       transform="matrix(0.987365,-0.158461,0.158461,0.987365,-9.323903,8.018214)"
       style="font-size:6px;font-style:normal;font-variant:normal;font-weight:bold;font-stretch:normal;writing-mode:lr-tb;text-anchor:start;fill:#34674b;fill-opacity:1;stroke:none;font-family:Bitstream Vera Serif"
       d="m 24.015308,50.539806 c -0.08789,-0.386715 -0.234379,-0.666012 -0.439453,-0.83789 -0.205081,-0.173824 -0.494144,-0.260738 -0.867187,-0.260742 -0.453128,4e-6 -0.786135,0.1543 -0.999024,0.46289 -0.210939,0.306644 -0.316407,0.791019 -0.316406,1.453125 -1e-6,0.656252 0.101561,1.13965 0.304688,1.450195 0.203123,0.308595 0.519528,0.462891 0.949218,0.462891 0.16406,0 0.316403,-0.01855 0.457032,-0.05566 0.140621,-0.03711 0.268551,-0.09277 0.383789,-0.166992 l 0,-1.201172 -0.527344,0 0,-0.351563 1.576172,0 0,1.678711 c -0.32813,0.152344 -0.656254,0.265626 -0.984375,0.339844 -0.326175,0.07422 -0.660159,0.111328 -1.001953,0.111328 -0.750002,0 -1.339845,-0.202148 -1.769532,-0.606445 -0.427734,-0.404296 -0.641601,-0.958006 -0.641601,-1.661133 0,-0.705075 0.213867,-1.259762 0.641601,-1.664062 0.429687,-0.404293 1.01953,-0.606441 1.769532,-0.606446 0.312497,5e-6 0.620114,0.03126 0.922851,0.09375 0.302731,0.06251 0.607418,0.157231 0.914063,0.28418 l 0,1.075195 -0.372071,0 m 1.816407,3 0,-0.354492 0.820312,0 0,-3.539062 -0.911133,0.539062 0,-0.436523 1.098633,-0.66211 0.922852,0 0,4.098633 0.823242,0 0,0.354492 -2.753906,0 m 5.4375,-0.257812 c 0.234372,0 0.394528,-0.106445 0.480468,-0.319336 0.08789,-0.21289 0.131834,-0.748046 0.131836,-1.605469 -2e-6,-0.851559 -0.04395,-1.385738 -0.131836,-1.602539 -0.08594,-0.216793 -0.246096,-0.325191 -0.480468,-0.325195 -0.234377,4e-6 -0.39551,0.106449 -0.483399,0.319336 -0.08594,0.212894 -0.128908,0.749026 -0.128906,1.608398 -2e-6,0.857423 0.04297,1.392579 0.128906,1.605469 0.08789,0.212891 0.249022,0.319336 0.483399,0.319336 m 0,0.342773 c -0.583986,0 -1.031251,-0.194336 -1.341797,-0.583008 -0.310548,-0.390624 -0.465821,-0.952146 -0.465821,-1.68457 0,-0.732419 0.155273,-1.293942 0.465821,-1.68457 0.310546,-0.390621 0.757811,-0.585933 1.341797,-0.585938 0.582028,5e-6 1.028317,0.195317 1.338867,0.585938 0.310543,0.390628 0.465816,0.952151 0.46582,1.68457 -4e-6,0.732424 -0.155277,1.293946 -0.46582,1.68457 -0.31055,0.388672 -0.756839,0.583008 -1.338867,0.583008 m 4.171875,-0.342773 c 0.234372,0 0.394528,-0.106445 0.480468,-0.319336 0.08789,-0.21289 0.131834,-0.748046 0.131836,-1.605469 -2e-6,-0.851559 -0.04395,-1.385738 -0.131836,-1.602539 -0.08594,-0.216793 -0.246096,-0.325191 -0.480468,-0.325195 -0.234377,4e-6 -0.39551,0.106449 -0.483399,0.319336 -0.08594,0.212894 -0.128908,0.749026 -0.128906,1.608398 -2e-6,0.857423 0.04297,1.392579 0.128906,1.605469 0.08789,0.212891 0.249022,0.319336 0.483399,0.319336 m 0,0.342773 c -0.583986,0 -1.031251,-0.194336 -1.341797,-0.583008 -0.310548,-0.390624 -0.465821,-0.952146 -0.465821,-1.68457 0,-0.732419 0.155273,-1.293942 0.465821,-1.68457 0.310546,-0.390621 0.757811,-0.585933 1.341797,-0.585938 0.582028,5e-6 1.028317,0.195317 1.338867,0.585938 0.310543,0.390628 0.465816,0.952151 0.46582,1.68457 -4e-6,0.732424 -0.155277,1.293946 -0.46582,1.68457 -0.31055,0.388672 -0.756839,0.583008 -1.338867,0.583008"
       id="path2176" />
    <path
       inkscape:connector-curvature="0"
       style="fill:none;stroke:#34674b;stroke-width:0.625;stroke-linecap:round;stroke-linejoin:round;stroke-miterlimit:4;stroke-opacity:1"
       d="m 20.32932,51.882525 1.325825,6.629126"
       id="path2177" />
  </g>
  <g
     id="g2178"
     transform="matrix(0.67534768,0.05242391,-0.05242391,0.67534768,55.783269,-21.630185)"
     style="font-size:12px">
    <path
       inkscape:connector-curvature="0"
       transform="matrix(0.987365,-0.158461,0.158461,0.987365,-9.323903,8.018214)"
       style="font-size:6px;font-style:normal;font-variant:normal;font-weight:bold;font-stretch:normal;writing-mode:lr-tb;text-anchor:start;fill:#34674b;fill-opacity:1;stroke:none;font-family:Bitstream Vera Serif"
       d="m 24.015308,50.539806 c -0.08789,-0.386715 -0.234379,-0.666012 -0.439453,-0.83789 -0.205081,-0.173824 -0.494144,-0.260738 -0.867187,-0.260742 -0.453128,4e-6 -0.786135,0.1543 -0.999024,0.46289 -0.210939,0.306644 -0.316407,0.791019 -0.316406,1.453125 -1e-6,0.656252 0.101561,1.13965 0.304688,1.450195 0.203123,0.308595 0.519528,0.462891 0.949218,0.462891 0.16406,0 0.316403,-0.01855 0.457032,-0.05566 0.140621,-0.03711 0.266669,-0.06978 0.383789,-0.166992 l 0.409407,-0.26505 0.461463,-1.053126 -1.398214,-0.234559 1.576172,0 0,1.678711 c -0.32813,0.152344 -0.656254,0.265626 -0.984375,0.339844 -0.326175,0.07422 -0.660159,0.111328 -1.001953,0.111328 -0.750002,0 -1.339845,-0.202148 -1.769532,-0.606445 -0.427734,-0.404296 -0.641601,-0.958006 -0.641601,-1.661133 0,-0.705075 0.213867,-1.259762 0.641601,-1.664062 0.429687,-0.404293 1.01953,-0.606441 1.769532,-0.606446 0.312497,5e-6 0.620114,0.03126 0.922851,0.09375 0.302731,0.06251 0.607418,0.157231 0.914063,0.28418 l 0,1.075195 -0.372071,0 m 1.816407,3 0,-0.354492 0.820312,0 0,-3.539062 -0.911133,0.539062 0,-0.436523 1.098633,-0.66211 0.922852,0 0,4.098633 0.823242,0 0,0.354492 -2.753906,0 m 5.4375,-0.257812 c 0.234372,0 0.394528,-0.106445 0.480468,-0.319336 0.08789,-0.21289 0.131834,-0.748046 0.131836,-1.605469 -2e-6,-0.851559 -0.04395,-1.385738 -0.131836,-1.602539 -0.08594,-0.216793 -0.246096,-0.325191 -0.480468,-0.325195 -0.234377,4e-6 -0.39551,0.106449 -0.483399,0.319336 -0.08594,0.212894 -0.128908,0.749026 -0.128906,1.608398 -2e-6,0.857423 0.04297,1.392579 0.128906,1.605469 0.08789,0.212891 0.249022,0.319336 0.483399,0.319336 m 0,0.342773 c -0.583986,0 -1.031251,-0.194336 -1.341797,-0.583008 -0.310548,-0.390624 -0.465821,-0.952146 -0.465821,-1.68457 0,-0.732419 0.155273,-1.293942 0.465821,-1.68457 0.310546,-0.390621 0.757811,-0.585933 1.341797,-0.585938 0.582028,5e-6 1.028317,0.195317 1.338867,0.585938 0.310543,0.390628 0.465816,0.952151 0.46582,1.68457 -4e-6,0.732424 -0.155277,1.293946 -0.46582,1.68457 -0.31055,0.388672 -0.756839,0.583008 -1.338867,0.583008 m 4.171875,-0.342773 c 0.234372,0 0.394528,-0.106445 0.480468,-0.319336 0.08789,-0.21289 0.131834,-0.748046 0.131836,-1.605469 -2e-6,-0.851559 -0.04395,-1.385738 -0.131836,-1.602539 -0.08594,-0.216793 -0.246096,-0.325191 -0.480468,-0.325195 -0.234377,4e-6 -0.39551,0.106449 -0.483399,0.319336 -0.08594,0.212894 -0.128908,0.749026 -0.128906,1.608398 -2e-6,0.857423 0.04297,1.392579 0.128906,1.605469 0.08789,0.212891 0.249022,0.319336 0.483399,0.319336 m 0,0.342773 c -0.583986,0 -1.031251,-0.194336 -1.341797,-0.583008 -0.310548,-0.390624 -0.465821,-0.952146 -0.465821,-1.68457 0,-0.732419 0.155273,-1.293942 0.465821,-1.68457 0.310546,-0.390621 0.757811,-0.585933 1.341797,-0.585938 0.582028,5e-6 1.028317,0.195317 1.338867,0.585938 0.310543,0.390628 0.465816,0.952151 0.46582,1.68457 -4e-6,0.732424 -0.155277,1.293946 -0.46582,1.68457 -0.31055,0.388672 -0.756839,0.583008 -1.338867,0.583008"
       id="path2179"
       sodipodi:nodetypes="ccccscsccccccccscsccccccccccccccccccccscccsccccsscccccccscccsccccssccccc" />
    <path
       inkscape:connector-curvature="0"
       style="fill:none;stroke:#34674b;stroke-width:0.625;stroke-linecap:round;stroke-linejoin:round;stroke-miterlimit:4;stroke-opacity:1"
       d="m 17.811266,56.023297 6.695031,-0.937914"
       id="path2180" />
    <path
       inkscape:connector-curvature="0"
       style="font-size:12px;fill:none;stroke:#34674b;stroke-width:0.625;stroke-linecap:round;stroke-linejoin:round;stroke-miterlimit:4;stroke-opacity:1"
       d="m 17.661428,55.066855 6.695031,-0.937914"
       id="path2180-7" />
  </g>
  <path
     inkscape:connector-curvature="0"
     style="font-size:12px;fill:none;stroke:#34674b;stroke-width:0.49841863;stroke-linecap:round;stroke-linejoin:round"
     d="m 30.383625,18.323218 c 0,0 12.220984,-2.340089 17.325332,-2.036848"
     id="path2181" />
  <path
     inkscape:connector-curvature="0"
     style="font-size:12px;fill:none;stroke:#34674b;stroke-width:0.49841863;stroke-linecap:round;stroke-linejoin:round"
     d="m 31.088495,19.732959 c 0,0 12.220984,-2.340089 17.325332,-2.036848"
     id="path2182" />
  <path
     inkscape:connector-curvature="0"
     style="font-size:12px;fill:none;stroke:#34674b;stroke-width:0.49841863;stroke-linecap:round;stroke-linejoin:round"
     d="m 61.574139,42.112593 c 0,0 12.220984,-2.340089 17.325333,-2.036848"
     id="path2183" />
  <path
     inkscape:connector-curvature="0"
     style="font-size:12px;fill:none;stroke:#34674b;stroke-width:0.49841863;stroke-linecap:round;stroke-linejoin:round"
     d="m 62.102792,44.227205 c 0,0 12.220984,-2.340089 17.325332,-2.036848"
     id="path2184" />
  <path
     style="fill:#000000;fill-opacity:0.39215686;fill-rule:evenodd;stroke:none"
     d="m 86.386454,62.935145 c 0,0 -33.179624,9.539172 -34.608569,9.858436 -4.207589,1.673784 -4.636634,6.830133 -1.071708,8.300852 7.859196,-1.915581 31.328432,-7.962222 31.328432,-7.962222 l 0.108351,-3.531266 c 0,0 5.964664,0.112877 6.679136,2.986249 0.714472,2.873371 -0.606122,3.399022 -2.392302,4.356813 -1.786181,0.957791 -35.741569,9.74556 -39.801187,9.1264 C 44.842426,85.112615 3.1937668,67.685365 3.1937668,67.685365 c 0,0 -7.1447233,-11.174225 3.2151245,-14.686124 10.3598497,-3.511899 33.9374367,-8.620115 33.9374367,-8.620115 0,0 2.500653,0 5.001307,0.95779 2.500652,0.957792 39.653215,13.728333 41.082159,15.32465 1.428945,1.596319 -0.04334,2.273579 -0.04334,2.273579 z"
     id="path2743"
     sodipodi:nodetypes="cccccccccccccc"
     inkscape:connector-curvature="0" />
  <path
     style="fill:none;stroke:#000000;stroke-width:7.5;stroke-linecap:butt;stroke-linejoin:miter;stroke-miterlimit:4;stroke-opacity:1"
     d="m 80.087087,55.912913 c 0,0 -29.024587,9.337087 -30.274587,9.649587 -3.68068,1.638325 -4.055995,6.685437 -0.9375,8.125 6.875,-1.875 27.405218,-7.793544 27.405218,-7.793544 L 76.375,62.4375 c 0,0 5.217718,0.110485 5.842718,2.922985 C 82.842718,68.172985 81.6875,68.6875 80.125,69.625 78.5625,70.5625 48.859296,79.164102 45.308058,78.558058 43.745558,77.620558 7.3125,60.5625 7.3125,60.5625 c 0,0 -6.25,-10.9375 2.8125,-14.375 C 19.1875,42.75 39.8125,37.75 39.8125,37.75 c 0,0 2.1875,0 4.375,0.9375 2.1875,0.9375 34.6875,13.4375 35.9375,15 1.25,1.5625 -0.03791,2.225413 -0.03791,2.225413 z"
     id="path2615"
     sodipodi:nodetypes="cccccccccccccc"
     inkscape:connector-curvature="0" />
  <g
     inkscape:label="Layer 1"
     inkscape:groupmode="layer"
     id="layer1" />
  <path
     style="fill:#ffffff;fill-opacity:1;fill-rule:evenodd;stroke:none"
     d="m 76.391358,55.664807 0,10.38563 -30.49398,8.175923 -3.535534,-10.16466 12.81631,-6.629126 21.213204,-1.767767 z"
     id="path2585"
     inkscape:connector-curvature="0" />
  <path
     style="fill:url(#linearGradient2593);fill-opacity:1;fill-rule:evenodd;stroke:none"
     d="m 76.391358,55.664807 0,10.38563 -30.49398,8.175923 -3.535534,-10.16466 12.81631,-6.629126 21.213204,-1.767767 z"
     id="path2589"
     inkscape:connector-curvature="0" />
  <path
     style="fill:#002f77;fill-opacity:1;fill-rule:evenodd;stroke:none"
     d="m 80.087087,55.912913 c 0,0 -29.024587,9.337087 -30.274587,9.649587 -3.68068,1.638325 -4.055995,6.685437 -0.9375,8.125 6.875,-1.875 27.405218,-7.793544 27.405218,-7.793544 L 76.375,62.4375 c 0,0 5.217718,0.110485 5.842718,2.922985 C 82.842718,68.172985 81.6875,68.6875 80.125,69.625 78.5625,70.5625 48.859296,79.164102 45.308058,78.558058 43.745558,77.620558 7.3125,60.5625 7.3125,60.5625 c 0,0 -6.25,-10.9375 2.8125,-14.375 C 19.1875,42.75 39.8125,37.75 39.8125,37.75 c 0,0 2.1875,0 4.375,0.9375 2.1875,0.9375 34.6875,13.4375 35.9375,15 1.25,1.5625 -0.03791,2.225413 -0.03791,2.225413 z"
     id="path2459"
     sodipodi:nodetypes="cccccccccccccc"
     inkscape:connector-curvature="0" />
  <path
     style="fill:url(#linearGradient2611);fill-opacity:1;fill-rule:evenodd;stroke:none"
     d="M 10.125,46.1875 C 27.3125,42.125 39.8125,37.75 39.8125,37.75 c 0,0 2.1875,0 4.375,0.9375 2.1875,0.9375 34.6875,13.4375 35.9375,15 -42.1875,-14.6875 -35,4.375 -70,-7.5 z"
     id="path2607"
     sodipodi:nodetypes="ccccc"
     inkscape:connector-curvature="0" />
  <path
     style="fill:url(#linearGradient2600);fill-opacity:1;fill-rule:evenodd;stroke:none"
     d="m 79.1875,53.15625 c 3e-6,10e-7 -32.263483,8.717718 -34.473192,11.148398 C 40.957802,67.508725 42.477792,76.125 45.129442,78.113738 48.002065,78.334711 50,77.65625 50,77.65625 L 78.544733,69.821383 C 78.97626,69.558015 81.59272,68.389041 81.879442,68.0625 L 81.78125,64.90625 C 81.308837,64.146552 80.561495,64.30434 80.520146,64.214308 L 65.96875,68.4375 C 59.343967,70.338277 52.92865,72.184232 48.5625,73.375 45.444005,71.935437 45.81932,66.888325 49.5,65.25 c 0.05558,-0.01389 1.183353,-0.389539 1.34375,-0.4375 L 50.875,64.625 54.5,63.65625 c 7.408281,-2.331059 25.281248,-8.062501 25.28125,-8.0625 0,0 0.389839,-0.269725 0.5,-0.78125 L 79.1875,53.15625 z"
     id="path2587"
     sodipodi:nodetypes="ccccccccccccccccc"
     inkscape:connector-curvature="0" />
  <path
     style="fill:url(#linearGradient2620);fill-opacity:1;fill-rule:evenodd;stroke:none"
     d="M 6.6875,49 44.8125,64 45.75,75.25 45.4375,79 5.125,60.25 4.1875,53.0625 6.6875,49 z"
     id="path2616"
     inkscape:connector-curvature="0" />
  <g
     inkscape:label="Layer 1"
     inkscape:groupmode="layer"
     id="g2653"
     style="display:block;"
     transform="translate(116.6726,-3.093592)" />
  <g
     inkscape:groupmode="layer"
     id="layer2"
     inkscape:label="layer 2"
     transform="translate(116.6726,-3.093592)" />
  <g
     id="g3088"
     transform="matrix(0.25463712,-0.07656355,0.48528251,0.21765459,12.075017,43.223165)">
    <path
       sodipodi:nodetypes="ccccccccccccccccccccccccccccccccccccccccccccccccccccccccccccccccccccccccccccccccccccccccccccccccccccccccccccccccccccccccccccccccccccccccccccc"
       id="path1754"
       d="m 19.302817,16.386938 c -0.828595,0.37204 -1.682553,0.980801 -2.561866,1.826283 -0.27057,0.202938 -0.524217,0.3044 -0.760955,0.304379 -0.473485,2.1e-5 -0.870867,-0.405819 -1.192155,-1.217523 -0.202924,-0.541099 -0.304382,-1.039943 -0.304382,-1.496537 0,-0.574917 0.160643,-1.090675 0.481935,-1.547268 0.997689,-0.625649 2.485771,-1.564152 4.464248,-2.815518 0.253643,-0.355088 0.659484,-0.53264 1.217523,-0.532666 0.321283,2.6e-5 0.693301,0.05921 1.116064,0.177557 1.149869,0.338222 1.733267,0.904711 1.750189,1.699457 -0.372032,4.024607 -0.558043,7.499613 -0.558035,10.425034 -8e-6,1.572645 0.05072,3.145277 0.152194,4.7179 0.93004,-0.03381 1.868543,-0.05072 2.815517,-0.05073 1.55571,8e-6 3.119883,0.05074 4.692537,0.152189 0.963849,0.405849 1.420421,1.175254 1.369711,2.308219 -0.05075,1.116068 -0.465048,1.606458 -1.242885,1.471173 -2.164502,-0.388927 -4.743281,-0.532662 -7.736342,-0.431204 -2.908535,0.101463 -6.019976,0.321292 -9.334338,0.659488 -0.845503,0.08456 -1.437351,-0.177548 -1.775552,-0.786314 -0.13528,-0.202916 -0.20292,-0.422745 -0.20292,-0.659492 0,-0.439654 0.211375,-0.92159 0.634124,-1.445806 2.993075,-0.507294 5.453483,-0.83704 7.381228,-0.989238 -0.270564,-3.483456 -0.405845,-7.406579 -0.40584,-11.769382 m 16.588743,4.514979 c 0.625671,-0.0169 1.395075,-0.02535 2.308219,-0.02537 l 2.866249,0.02537 c -0.118376,-2.130648 -0.295933,-3.745553 -0.532667,-4.844725 0.169094,-0.963849 0.794769,-1.50497 1.877015,-1.623363 1.065324,-0.101437 1.843184,0.397408 2.333586,1.496537 -0.287482,0.980801 -0.473493,2.629528 -0.558034,4.946184 1.149874,-0.01689 1.995373,-0.04226 2.536507,-0.0761 0.946949,-0.06762 1.783994,-0.185994 2.511139,-0.35511 0.946945,0.219847 1.462702,0.862426 1.547268,1.927742 0.08453,1.082255 -0.431221,1.843209 -1.547268,2.282855 -1.099164,-0.304365 -2.781713,-0.532653 -5.047646,-0.684856 0.08454,2.046126 0.304374,3.584936 0.659492,4.616438 -0.101471,1.149891 -0.583406,1.767106 -1.445806,1.851651 -0.87933,0.08455 -1.57264,-0.270556 -2.079935,-1.065333 -0.05074,-0.659484 -0.08456,-1.471165 -0.101462,-2.435045 l -0.05073,-3.018442 c -1.893928,0.03383 -3.424287,0.202934 -4.591074,0.507303 -1.132973,-0.101449 -1.724825,-0.591839 -1.775552,-1.471173 -0.06764,-0.879309 0.295924,-1.564165 1.090696,-2.054568 m 25.517237,-4.514979 c -0.8286,0.37204 -1.682553,0.980801 -2.561871,1.826283 -0.270565,0.202938 -0.524216,0.3044 -0.76095,0.304379 -0.473485,2.1e-5 -0.870872,-0.405819 -1.192159,-1.217523 -0.20292,-0.541099 -0.304383,-1.039943 -0.304378,-1.496537 -5e-6,-0.574917 0.160639,-1.090675 0.481935,-1.547268 0.997689,-0.625649 2.485767,-1.564152 4.464248,-2.815518 0.253643,-0.355088 0.659484,-0.53264 1.217523,-0.532666 0.321278,2.6e-5 0.693301,0.05921 1.116059,0.177557 1.149874,0.338222 1.733267,0.904711 1.750189,1.699457 -0.372031,4.024607 -0.558043,7.499613 -0.55803,10.425034 -1.3e-5,1.572645 0.05072,3.145277 0.15219,4.7179 0.930039,-0.03381 1.868547,-0.05072 2.815521,-0.05073 1.555706,8e-6 3.119883,0.05074 4.692532,0.152189 0.963854,0.405849 1.420421,1.175254 1.369712,2.308219 -0.05075,1.116068 -0.465044,1.606458 -1.242886,1.471173 -2.164501,-0.388927 -4.743276,-0.532662 -7.736338,-0.431204 -2.908534,0.101463 -6.019979,0.321292 -9.334337,0.659488 -0.845503,0.08456 -1.437356,-0.177548 -1.775556,-0.786314 -0.135281,-0.202916 -0.202921,-0.422745 -0.202921,-0.659492 0,-0.439654 0.21138,-0.92159 0.634129,-1.445806 2.99307,-0.507294 5.453478,-0.83704 7.381228,-0.989238 -0.270569,-3.483456 -0.405849,-7.406579 -0.40584,-11.769382 M 12.036987,73.88364 c 0.101458,9e-6 0.20292,-0.0169 0.304382,-0.05073 2.807059,-1.369702 5.445024,-2.891607 7.913895,-4.56571 3.618732,-2.46885 5.690208,-4.574148 6.214433,-6.315895 0.06763,-0.202903 0.101445,-0.388915 0.101462,-0.55803 -1.7e-5,-1.166774 -1.149895,-1.750167 -3.449646,-1.750189 -2.164493,2.2e-5 -5.53804,0.718695 -10.120656,2.15603 -0.219829,0.06766 -0.414295,0.101475 -0.583393,0.101458 -0.541121,1.7e-5 -0.904689,-0.329725 -1.090696,-0.989239 -0.101463,-0.338179 -0.152194,-0.693288 -0.152194,-1.065329 0,-0.541099 0.101462,-1.099133 0.304383,-1.674094 4.362781,-1.927719 8.133715,-2.89159 11.31281,-2.891616 1.606441,2.6e-5 3.069156,0.202946 4.388153,0.608761 1.674077,0.507325 2.874686,1.285188 3.601836,2.333586 0.45655,0.693332 0.684838,1.471192 0.684856,2.333583 -1.8e-5,1.166812 -0.439681,2.477338 -1.318981,3.931581 -1.55574,2.53652 -4.844738,4.980019 -9.867004,7.330502 1.606442,-0.118363 3.246713,-0.186003 4.920821,-0.202921 1.674077,-0.0169 3.381989,0.03383 5.123736,0.152189 0.963853,0.40585 1.420425,1.175255 1.369716,2.308219 -0.05075,1.149887 -0.465048,1.648735 -1.24289,1.496537 -2.164502,-0.405836 -4.734822,-0.558025 -7.710975,-0.456572 -2.976174,0.118376 -6.09607,0.33821 -9.3597,0.659493 -0.845504,0.08456 -1.445811,-0.169094 -1.80092,-0.760951 -0.118372,-0.202916 -0.177553,-0.422745 -0.177553,-0.659492 0,-0.439654 0.211375,-0.930044 0.634125,-1.471174 M 34.485054,58.639249 c -0.152189,-0.219808 -0.228284,-0.439637 -0.228284,-0.659493 0,-0.591826 0.414295,-1.09067 1.242886,-1.496537 0.47348,-0.219803 1.006143,-0.32972 1.597999,-0.329746 0.591848,0.01694 1.082238,0.219855 1.47117,0.608761 1.758639,3.094559 3.475005,5.766341 5.149104,8.015357 1.657172,-2.249016 3.373538,-4.920798 5.149108,-8.015357 0.372005,-0.388906 0.853941,-0.591826 1.445806,-0.608761 1.285145,-0.01688 2.198285,0.405867 2.739423,1.268254 0.219812,0.372044 0.194448,0.777885 -0.0761,1.217522 -2.435057,3.956967 -4.650272,7.10223 -6.645641,9.435799 2.029191,2.401236 4.109121,4.320523 6.239801,5.757865 0.422732,0.422759 0.634107,0.837054 0.634128,1.242886 -2.1e-5,0.541125 -0.253668,1.006152 -0.760954,1.395079 -0.388945,0.287474 -0.828608,0.439663 -1.318981,0.456568 -0.490407,0.03383 -0.86243,-0.14373 -1.116064,-0.532662 -2.232137,-1.60645 -4.328976,-3.424275 -6.290531,-5.453487 -1.978482,2.029212 -4.075321,3.847037 -6.290532,5.453487 -0.253652,0.388932 -0.62567,0.566488 -1.11606,0.532662 -1.149882,-0.05072 -1.834738,-0.583389 -2.054567,-1.597995 -0.101462,-0.473477 0.101458,-0.972321 0.608761,-1.496538 2.113749,-1.437342 4.193679,-3.356629 6.2398,-5.757865 -2.451957,-2.87469 -4.658718,-6.019953 -6.620277,-9.435799 M 58.708673,73.88364 c 0.101458,9e-6 0.20292,-0.0169 0.304383,-0.05073 2.807058,-1.369702 5.445023,-2.891607 7.913894,-4.56571 3.618732,-2.46885 5.690208,-4.574148 6.214433,-6.315895 0.06763,-0.202903 0.101445,-0.388915 0.101462,-0.55803 -1.7e-5,-1.166774 -1.149895,-1.750167 -3.449646,-1.750189 -2.164493,2.2e-5 -5.53804,0.718695 -10.120655,2.15603 -0.21983,0.06766 -0.414296,0.101475 -0.583394,0.101458 -0.541121,1.7e-5 -0.904689,-0.329725 -1.090696,-0.989239 -0.101463,-0.338179 -0.152194,-0.693288 -0.152194,-1.065329 0,-0.541099 0.101463,-1.099133 0.304383,-1.674094 4.362782,-1.927719 8.133715,-2.89159 11.31281,-2.891616 1.606441,2.6e-5 3.069156,0.202946 4.388153,0.608761 1.674077,0.507325 2.874686,1.285188 3.601836,2.333586 0.45655,0.693332 0.684838,1.471192 0.684856,2.333583 -1.8e-5,1.166812 -0.439681,2.477338 -1.318981,3.931581 -1.55574,2.53652 -4.844738,4.980019 -9.867003,7.330502 1.606441,-0.118363 3.246713,-0.186003 4.92082,-0.202921 1.674077,-0.0169 3.381989,0.03383 5.123736,0.152189 0.963853,0.40585 1.420425,1.175255 1.369716,2.308219 -0.05075,1.149887 -0.465048,1.648735 -1.24289,1.496537 -2.164501,-0.405836 -4.734822,-0.558025 -7.710974,-0.456572 -2.976175,0.118376 -6.09607,0.33821 -9.359701,0.659493 -0.845504,0.08456 -1.44581,-0.169094 -1.80092,-0.760951 -0.118371,-0.202916 -0.177553,-0.422745 -0.177553,-0.659492 0,-0.439654 0.211375,-0.930044 0.634125,-1.471174"
       style="font-size:6px;font-style:normal;font-variant:normal;font-weight:normal;font-stretch:normal;writing-mode:lr-tb;text-anchor:start;fill:#0d3c07;fill-opacity:1;stroke:#0d3c07;stroke-width:4.32896805pt;stroke-linecap:butt;stroke-linejoin:miter;stroke-opacity:1;font-family:Kid Kosmic"
       inkscape:connector-curvature="0" />
    <path
       sodipodi:nodetypes="ccccccccccccccccccccccccccccccccccccccccccccccccccccccccccccccccccccccccccccccccccccccccccccccccccccccccccccccccccccccccccccccccccccccccccccc"
       id="text1125"
       d="m 18.223141,15.307263 c -0.828594,0.37204 -1.682553,0.980802 -2.561866,1.826284 -0.270569,0.202937 -0.524216,0.3044 -0.760954,0.304378 -0.473485,2.2e-5 -0.870867,-0.405819 -1.192155,-1.217522 -0.202924,-0.5411 -0.304382,-1.039944 -0.304382,-1.496537 0,-0.574918 0.160643,-1.090675 0.481935,-1.547269 0.997689,-0.625649 2.485771,-1.564152 4.464248,-2.815518 0.253643,-0.355088 0.659484,-0.5326404 1.217522,-0.5326664 0.321283,2.6e-5 0.693302,0.059212 1.116065,0.1775574 1.149869,0.338222 1.733267,0.904711 1.750188,1.699457 -0.372031,4.024608 -0.558042,7.499613 -0.558034,10.425034 -8e-6,1.572645 0.05072,3.145277 0.152194,4.7179 0.93004,-0.03381 1.868542,-0.05072 2.815517,-0.05073 1.55571,9e-6 3.119883,0.05074 4.692537,0.152189 0.963849,0.40585 1.420421,1.175254 1.369711,2.308219 -0.05075,1.116068 -0.465048,1.606458 -1.242886,1.471174 -2.164501,-0.388928 -4.74328,-0.532662 -7.736342,-0.431204 -2.908534,0.101462 -6.019975,0.321291 -9.334337,0.659488 -0.845504,0.08456 -1.437351,-0.177549 -1.775552,-0.786314 -0.13528,-0.202916 -0.20292,-0.422746 -0.20292,-0.659493 0,-0.439654 0.211374,-0.921589 0.634124,-1.445806 2.993075,-0.507294 5.453482,-0.83704 7.381228,-0.989238 -0.270565,-3.483456 -0.405845,-7.406579 -0.405841,-11.769382 m 16.588744,4.51498 c 0.62567,-0.0169 1.395075,-0.02535 2.308219,-0.02537 l 2.866249,0.02537 c -0.118376,-2.130649 -0.295933,-3.745553 -0.532667,-4.844726 0.169094,-0.963849 0.794768,-1.50497 1.877015,-1.623363 1.065324,-0.101436 1.843183,0.397408 2.333586,1.496537 -0.287482,0.980802 -0.473494,2.629528 -0.558034,4.946184 1.149873,-0.01689 1.995373,-0.04226 2.536507,-0.07609 0.946949,-0.06762 1.783993,-0.185994 2.511139,-0.355109 0.946944,0.219846 1.462702,0.862425 1.547268,1.927741 0.08453,1.082255 -0.431221,1.84321 -1.547268,2.282855 -1.099164,-0.304365 -2.781713,-0.532653 -5.047646,-0.684855 0.08454,2.046125 0.304374,3.584935 0.659492,4.616437 -0.101471,1.149891 -0.583406,1.767107 -1.445806,1.851651 -0.87933,0.08455 -1.57264,-0.270556 -2.079935,-1.065333 -0.05073,-0.659483 -0.08456,-1.471165 -0.101462,-2.435044 l -0.05073,-3.018442 c -1.893928,0.03383 -3.424287,0.202933 -4.591074,0.507303 -1.132973,-0.10145 -1.724825,-0.59184 -1.775552,-1.471174 -0.06764,-0.879309 0.295924,-1.564165 1.090696,-2.054567 m 25.517236,-4.51498 c -0.828599,0.37204 -1.682553,0.980802 -2.56187,1.826284 -0.270565,0.202937 -0.524216,0.3044 -0.76095,0.304378 -0.473485,2.2e-5 -0.870872,-0.405819 -1.192159,-1.217522 -0.20292,-0.5411 -0.304383,-1.039944 -0.304378,-1.496537 -5e-6,-0.574918 0.160639,-1.090675 0.481935,-1.547269 0.997689,-0.625649 2.485767,-1.564152 4.464248,-2.815518 0.253643,-0.355088 0.659484,-0.5326404 1.217522,-0.5326664 0.321279,2.6e-5 0.693302,0.059212 1.11606,0.1775574 1.149874,0.338222 1.733267,0.904711 1.750189,1.699457 -0.372031,4.024608 -0.558043,7.499613 -0.55803,10.425034 -1.3e-5,1.572645 0.05072,3.145277 0.152189,4.7179 0.93004,-0.03381 1.868547,-0.05072 2.815522,-0.05073 1.555706,9e-6 3.119883,0.05074 4.692532,0.152189 0.963854,0.40585 1.420421,1.175254 1.369712,2.308219 -0.05075,1.116068 -0.465044,1.606458 -1.242886,1.471174 -2.164501,-0.388928 -4.743276,-0.532662 -7.736338,-0.431204 -2.908534,0.101462 -6.019979,0.321291 -9.334337,0.659488 -0.845504,0.08456 -1.437356,-0.177549 -1.775556,-0.786314 -0.135281,-0.202916 -0.202921,-0.422746 -0.202921,-0.659493 0,-0.439654 0.211379,-0.921589 0.634129,-1.445806 2.99307,-0.507294 5.453478,-0.83704 7.381228,-0.989238 C 60.46439,23.593196 60.32911,19.670073 60.329118,15.30727 M 10.957312,71.715777 c 0.101458,9e-6 0.20292,-0.0169 0.304382,-0.05073 2.807059,-1.369702 5.445024,-2.891607 7.913895,-4.56571 3.618732,-2.46885 5.690208,-4.574148 6.214433,-6.315895 0.06763,-0.202903 0.101445,-0.388915 0.101462,-0.55803 -1.7e-5,-1.166774 -1.149895,-1.750167 -3.449646,-1.750189 -2.164493,2.2e-5 -5.53804,0.718695 -10.120656,2.156029 -0.219829,0.06766 -0.414295,0.101476 -0.583393,0.101458 -0.541121,1.8e-5 -0.904689,-0.329724 -1.090697,-0.989238 -0.101462,-0.338179 -0.152193,-0.693289 -0.152193,-1.065329 0,-0.541099 0.101462,-1.099133 0.304383,-1.674094 4.362781,-1.92772 8.133715,-2.89159 11.31281,-2.891616 1.606441,2.6e-5 3.069156,0.202946 4.388153,0.608761 1.674077,0.507325 2.874686,1.285188 3.601836,2.333586 0.45655,0.693332 0.684838,1.471191 0.684855,2.333582 -1.7e-5,1.166813 -0.43968,2.477339 -1.31898,3.931582 -1.55574,2.53652 -4.844738,4.980019 -9.867004,7.330501 1.606441,-0.118362 3.246713,-0.186002 4.920821,-0.20292 1.674076,-0.0169 3.381989,0.03383 5.123736,0.152189 0.963853,0.40585 1.420425,1.175254 1.369716,2.308219 -0.05075,1.149886 -0.465048,1.648735 -1.24289,1.496537 -2.164502,-0.405836 -4.734822,-0.558025 -7.710975,-0.456572 -2.976174,0.118376 -6.09607,0.33821 -9.3597,0.659493 -0.845504,0.08456 -1.445811,-0.169094 -1.80092,-0.760951 -0.118372,-0.202916 -0.177553,-0.422745 -0.177553,-0.659492 0,-0.439654 0.211375,-0.930044 0.634125,-1.471174 M 33.405379,56.471386 c -0.15219,-0.219808 -0.228284,-0.439637 -0.228284,-0.659493 0,-0.591826 0.414295,-1.09067 1.242886,-1.496537 0.47348,-0.219803 1.006143,-0.32972 1.597999,-0.329746 0.591848,0.01693 1.082238,0.219855 1.47117,0.608761 1.758639,3.094558 3.475005,5.766341 5.149104,8.015357 1.657172,-2.249016 3.373538,-4.920799 5.149108,-8.015357 0.372005,-0.388906 0.853941,-0.591826 1.445806,-0.608761 1.285145,-0.01688 2.198284,0.405867 2.739423,1.268253 0.219812,0.372045 0.194448,0.777886 -0.0761,1.217523 -2.435057,3.956966 -4.650272,7.10223 -6.645641,9.435799 2.029191,2.401235 4.109121,4.320522 6.2398,5.757865 0.422733,0.422759 0.634108,0.837054 0.634129,1.242886 -2.1e-5,0.541125 -0.253669,1.006152 -0.760954,1.395079 -0.388945,0.287474 -0.828608,0.439663 -1.318981,0.456568 -0.490407,0.03383 -0.86243,-0.143731 -1.116064,-0.532662 -2.232137,-1.60645 -4.328976,-3.424275 -6.290531,-5.453487 -1.978482,2.029212 -4.075321,3.847037 -6.290532,5.453487 -0.253652,0.388931 -0.62567,0.566488 -1.11606,0.532662 -1.149882,-0.05072 -1.834738,-0.583389 -2.054567,-1.597995 -0.101462,-0.473477 0.101458,-0.972321 0.608761,-1.496538 2.113748,-1.437343 4.193679,-3.35663 6.2398,-5.757865 -2.451957,-2.87469 -4.658718,-6.019954 -6.620277,-9.435799 m 24.223619,15.244391 c 0.101458,9e-6 0.20292,-0.0169 0.304383,-0.05073 2.807058,-1.369702 5.445023,-2.891607 7.913894,-4.56571 3.618732,-2.46885 5.690208,-4.574148 6.214433,-6.315895 0.06763,-0.202903 0.101445,-0.388915 0.101462,-0.55803 -1.7e-5,-1.166774 -1.149895,-1.750167 -3.449646,-1.750189 -2.164493,2.2e-5 -5.53804,0.718695 -10.120655,2.156029 -0.21983,0.06766 -0.414296,0.101476 -0.583394,0.101458 -0.541121,1.8e-5 -0.904689,-0.329724 -1.090696,-0.989238 -0.101463,-0.338179 -0.152194,-0.693289 -0.152194,-1.065329 0,-0.541099 0.101463,-1.099133 0.304383,-1.674094 4.362782,-1.92772 8.133715,-2.89159 11.31281,-2.891616 1.606441,2.6e-5 3.069156,0.202946 4.388153,0.608761 1.674077,0.507325 2.874686,1.285188 3.601836,2.333586 0.45655,0.693332 0.684838,1.471191 0.684856,2.333582 -1.8e-5,1.166813 -0.439681,2.477339 -1.318981,3.931582 -1.55574,2.53652 -4.844738,4.980019 -9.867003,7.330501 1.606441,-0.118362 3.246713,-0.186002 4.92082,-0.20292 1.674077,-0.0169 3.381989,0.03383 5.123736,0.152189 0.963853,0.40585 1.420425,1.175254 1.369716,2.308219 -0.05075,1.149886 -0.465048,1.648735 -1.24289,1.496537 -2.164501,-0.405836 -4.734822,-0.558025 -7.710974,-0.456572 -2.976175,0.118376 -6.09607,0.33821 -9.359701,0.659493 -0.845504,0.08456 -1.44581,-0.169094 -1.80092,-0.760951 -0.118371,-0.202916 -0.177553,-0.422745 -0.177553,-0.659492 0,-0.439654 0.211375,-0.930044 0.634125,-1.471174"
       style="font-size:6px;font-style:normal;font-variant:normal;font-weight:normal;font-stretch:normal;writing-mode:lr-tb;text-anchor:start;fill:#2aaf18;fill-opacity:1;stroke:none;font-family:Kid Kosmic"
       inkscape:connector-curvature="0" />
  </g>
</svg>
