/* XPM */
static char * logo_w_xpm[] = {
"20 20 150 2",
"  	c None",
". 	c #6A6A6A",
"+ 	c #525252",
"@ 	c #565656",
"# 	c #555555",
"$ 	c #535353",
"% 	c #5E5E5E",
"& 	c #DDDDDD",
"* 	c #E5E5E5",
"= 	c #E4E4E4",
"- 	c #E3E3E3",
"; 	c #DFDFDF",
"> 	c #DADADA",
", 	c #D5D5D5",
"' 	c #CDCDCD",
") 	c #CACACA",
"! 	c #D4D4D4",
"~ 	c #9E9E9E",
"{ 	c #585858",
"] 	c #ECECEC",
"^ 	c #EAEAEA",
"/ 	c #EDEDED",
"( 	c #EBEBEB",
"_ 	c #E7E7E7",
": 	c #D7D7D7",
"< 	c #CECECE",
"[ 	c #C5C5C5",
"} 	c #B9B9B9",
"| 	c #B8B8B8",
"1 	c #D6D6D6",
"2 	c #434343",
"3 	c #EFEFEF",
"4 	c #F2F2F2",
"5 	c #E0E0E0",
"6 	c #D2D2D2",
"7 	c #BEBEBE",
"8 	c #B3B3B3",
"9 	c #A9A9A9",
"0 	c #9F9F9F",
"a 	c #515151",
"b 	c #EEEEEE",
"c 	c #FFFFFF",
"d 	c #F3F3F3",
"e 	c #E2E2E2",
"f 	c #C2C2C2",
"g 	c #B7B7B7",
"h 	c #AAAAAA",
"i 	c #A1A1A1",
"j 	c #999999",
"k 	c #8F8F8F",
"l 	c #BCBCBC",
"m 	c #F4F4F4",
"n 	c #E6E6E6",
"o 	c #E1E1E1",
"p 	c #C4C4C4",
"q 	c #ACACAC",
"r 	c #A0A0A0",
"s 	c #969696",
"t 	c #818181",
"u 	c #757575",
"v 	c #888888",
"w 	c #787878",
"x 	c #747474",
"y 	c #6F6F6F",
"z 	c #5D5D5D",
"A 	c #464646",
"B 	c #3C3C3C",
"C 	c #5F5F5F",
"D 	c #717171",
"E 	c #6D6D6D",
"F 	c #D1D1D1",
"G 	c #8E8E8E",
"H 	c #676767",
"I 	c #6C6C6C",
"J 	c #636363",
"K 	c #5A5A5A",
"L 	c #7B7B7B",
"M 	c #4C4C4C",
"N 	c #9A9A9A",
"O 	c #707070",
"P 	c #C7C7C7",
"Q 	c #BDBDBD",
"R 	c #AFAFAF",
"S 	c #8D8D8D",
"T 	c #7C7C7C",
"U 	c #404040",
"V 	c #DBDBDB",
"W 	c #D0D0D0",
"X 	c #C9C9C9",
"Y 	c #B5B5B5",
"Z 	c #838383",
"` 	c #7D7D7D",
" .	c #6E6E6E",
"..	c #646464",
"+.	c #696969",
"@.	c #545454",
"#.	c #CFCFCF",
"$.	c #D3D3D3",
"%.	c #616161",
"&.	c #B6B6B6",
"*.	c #A6A6A6",
"=.	c #424242",
"-.	c #2D2D2D",
";.	c #474747",
">.	c #656565",
",.	c #626262",
"'.	c #3B3B3B",
").	c #C8C8C8",
"!.	c #C0C0C0",
"~.	c #373737",
"{.	c #989898",
"].	c #9C9C9C",
"^.	c #8C8C8C",
"/.	c #2B2B2B",
"(.	c #444444",
"_.	c #353535",
":.	c #333333",
"<.	c #737373",
"[.	c #595959",
"}.	c #2A2A2A",
"|.	c #5C5C5C",
"1.	c #686868",
"2.	c #454545",
"3.	c #ADADAD",
"4.	c #A8A8A8",
"5.	c #8A8A8A",
"6.	c #4F4F4F",
"7.	c #363636",
"8.	c #323232",
"9.	c #2E2E2E",
"0.	c #282828",
"a.	c #3F3F3F",
"b.	c #7E7E7E",
"c.	c #9D9D9D",
"d.	c #858585",
"e.	c #808080",
"f.	c #606060",
"g.	c #5B5B5B",
"h.	c #BBBBBB",
"i.	c #797979",
"j.	c #767676",
"k.	c #9B9B9B",
"l.	c #6B6B6B",
"m.	c #777777",
"n.	c #979797",
"o.	c #4A4A4A",
"p.	c #666666",
"q.	c #CCCCCC",
"r.	c #484848",
"s.	c #3D3D3D",
"  . + @ # # # # # # # # @ # # # # $ %   ",
". . & * * = * - ; > , ' ) ! = = * = ~ { ",
"+ & ] ^ ] / ( _ - & : < [ } | 1 ( ^ ( 2 ",
"@ * ^ ] 3 3 4 * 5 > 6 ) 7 8 9 0 ) ( ^ a ",
"# * ] 3 b c d e & 1 ' f g h i j k l ^ a ",
"# = ] ] b m n o 1 < p } q r s k t u _ a ",
"# n ( ^ _ e g v w x u y z A B C D E i $ ",
"# - _ n F G H I x x w x J K # @ E . L M ",
"# & o & N O ~ ! P Q R r s S T y . H O U ",
"# : V W T D X f Y t Z `  .C + a H ..+.B ",
"@.#.$.[ %.% l &.*.+ # a =.B -.;.>.,...'.",
"@.P ).!.@ ~.{.9 ].^.Z x  .J /.(.,.C ..B ",
"$ l l g ^._.:.+.<.I ,.z [.@.}.=.C |.1.2.",
"@ ).3.4.i 5.6.7.:.:.:.8.9./.0.a.z K b.+ ",
"# * c.G d.e.T y H ..f.% g.{ @.# K g.1 + ",
"# * h.L i.w j.x D  .. H ..f.z K [.k.( a ",
"# * ( 8 j.x <.O  .l.H ..%.% g.[.e.( ^ a ",
"$ = ^ ( 8 m.y E l.H >.,.C K [.n.( ^ ^ o.",
"% ~ ( ^ ^ - n.j.I +.p...p.T 1 ( ^ ^ q.2.",
"  { 2 a a a $ r.s.'.'.'.(.+ + a a o.2.  "};
